# Blender v3.2.0 OBJ File: 'USAHouseSF.blend'
# www.blender.org
mtllib USAHouseSF.mtl
o building_003_building_003_mesh
v -3.135779 0.000000 3.870152
v 3.135779 0.000000 3.870152
v -3.135779 0.000000 -3.870152
v 3.135779 0.000000 -3.870152
v -3.235779 0.200000 3.970151
v 3.235779 0.200000 3.970151
v 3.235779 0.200000 -3.970151
v -3.235779 0.200000 -3.970151
v -3.135779 2.200000 3.870152
v 3.135779 2.200000 3.870152
v 3.135779 2.200000 -3.870152
v -3.135779 2.200000 -3.870152
v -3.235779 0.000000 -3.970151
v -3.235779 0.000000 3.970151
v 3.235779 0.000000 3.970151
v 3.235779 0.000000 -3.970151
v -3.135779 0.200000 3.870152
v 3.135779 0.200000 3.870152
v 3.135779 0.200000 -3.870152
v -3.135779 0.200000 -3.870152
v -3.235779 2.151100 3.970151
v 3.235779 2.151100 3.970151
v 3.235779 2.151100 -3.970151
v -3.235779 2.151100 -3.970151
v 0.000000 3.201100 -3.970151
v 0.000000 3.201100 3.970151
v 3.235779 2.251100 -3.970151
v 0.000000 3.301100 -3.970151
v 0.000000 3.301100 3.970151
v 3.235779 2.251100 3.970151
v -3.235779 2.251100 -3.970151
v -3.235779 2.251100 3.970151
v 3.135779 2.201100 3.870152
v 3.135779 2.201100 -3.870152
v -3.135779 2.201100 -3.870152
v -3.135779 2.201100 3.870152
v 0.000000 3.201100 -3.870152
v 0.000000 3.201100 3.870152
v 0.000000 3.301100 -3.870152
v 0.000000 3.301100 3.870152
v 0.000000 0.200000 -3.870152
v 0.000000 2.200000 -3.870152
v -0.892893 0.200000 -3.870152
v -2.242886 0.200000 -3.870152
v -0.892893 2.200000 -3.870152
v -2.242886 2.200000 -3.870152
v -2.242886 0.700000 -3.870152
v 2.242886 0.200000 -3.870152
v 0.892893 0.200000 -3.870152
v 2.242886 2.200000 -3.870152
v 0.892893 2.200000 -3.870152
v 2.242886 1.700000 -3.870152
v 0.892893 0.700000 -3.870152
v -0.892890 0.700000 -3.870152
v -2.242888 1.700000 -3.870152
v -0.892890 1.700000 -3.870152
v -0.948890 1.644000 -3.840152
v -2.186888 1.644000 -3.840152
v -2.186888 0.756000 -3.840152
v -0.948890 0.756000 -3.840152
v -2.242888 0.700000 -3.889152
v -2.242888 1.700000 -3.889152
v -2.186888 1.644000 -3.889152
v -2.186888 0.756000 -3.889152
v -0.892890 0.700000 -3.889152
v -0.948890 0.756000 -3.889152
v -0.948890 1.644000 -3.889152
v -0.892890 1.700000 -3.889152
v 2.242888 0.700000 -3.870152
v 0.892890 1.700000 -3.870152
v 2.186888 1.644000 -3.840152
v 0.948890 1.644000 -3.840152
v 0.948890 0.756000 -3.840152
v 2.186888 0.756000 -3.840152
v 0.892890 0.700000 -3.889152
v 0.892890 1.700000 -3.889152
v 0.948890 1.644000 -3.889152
v 0.948890 0.756000 -3.889152
v 2.242886 0.700000 -3.889152
v 2.186888 0.756000 -3.889152
v 2.186888 1.644000 -3.889152
v 2.242888 1.700000 -3.889152
v 0.000000 0.200000 3.870152
v 0.000000 2.200000 3.870152
v 0.892893 0.200000 3.870152
v 2.242886 0.200000 3.870152
v 0.892893 2.200000 3.870152
v 2.242886 2.200000 3.870152
v 2.242886 0.700000 3.870152
v 2.242886 1.700000 3.870152
v -2.242886 0.200000 3.870152
v -0.892893 0.200000 3.870152
v -2.242886 2.200000 3.870152
v -0.892893 2.200000 3.870152
v -0.892893 0.700000 3.870152
v -0.892893 1.700000 3.870152
v 0.892890 0.700000 3.870152
v 0.892890 1.700000 3.870152
v 0.948890 1.644000 3.840152
v 2.186888 1.644000 3.840152
v 2.186888 0.756000 3.840152
v 0.948890 0.756000 3.840152
v 2.242888 0.700000 3.889152
v 2.242886 1.700000 3.889152
v 2.186888 1.644000 3.889152
v 2.186888 0.756000 3.889152
v 0.892890 0.700000 3.889152
v 0.948890 0.756000 3.889152
v 0.948890 1.644000 3.889152
v 0.892893 1.700000 3.889152
v -2.242888 0.700000 3.870152
v -2.242888 1.700000 3.870152
v -2.186888 1.644000 3.840152
v -0.948890 1.644000 3.840152
v -0.948890 0.756000 3.840152
v -2.186888 0.756000 3.840152
v -0.892893 0.700000 3.889152
v -0.892893 1.700000 3.889152
v -0.948890 1.644000 3.889152
v -0.948890 0.756000 3.889152
v -2.242888 0.700000 3.889152
v -2.186888 0.756000 3.889152
v -2.186888 1.644000 3.889152
v -2.242888 1.700000 3.889152
v 3.135779 0.200000 0.000000
v 3.135779 2.200000 0.000000
v 3.135779 0.200000 -1.512091
v 3.135779 0.200000 -2.862075
v 3.135779 2.200000 -1.512091
v 3.135779 2.200000 -2.862075
v 3.135779 0.700000 -1.512091
v 3.135779 1.901100 0.399999
v 3.135779 0.700000 -2.862075
v 3.135779 1.901100 -0.399999
v 3.135779 0.200000 2.862075
v 3.135779 0.200000 1.512091
v 3.135779 2.200000 2.862075
v 3.135779 2.200000 1.512091
v 3.135779 0.700000 2.862075
v 3.135779 0.201100 -0.399999
v 3.135779 0.700000 1.512091
v 3.135779 0.201100 0.399999
v -3.135779 2.200000 0.000000
v 3.135779 2.001100 -0.499999
v 3.135779 1.700000 -2.862080
v 3.135779 1.700000 -1.512085
v 3.105779 1.644000 -1.568085
v 3.105779 1.644000 -2.806080
v 3.105779 0.756000 -2.806080
v 3.105779 0.756000 -1.568085
v 3.135779 2.001100 0.499997
v 3.154779 0.700000 -2.862075
v 3.154779 1.700000 -2.862075
v -3.135779 0.200000 0.000000
v 3.154779 1.644000 -2.806080
v 3.154779 0.756000 -2.806080
v 3.154779 0.700000 -1.512091
v 3.135779 2.198900 1.510991
v 3.154779 0.756000 -1.568085
v 3.154779 1.644000 -1.568085
v 3.154779 1.700000 -1.512085
v 3.135779 2.198900 -0.499997
v 3.135779 2.198900 -1.510991
v 3.135779 2.198900 0.499997
v 3.135779 1.700000 1.512085
v 3.135779 1.700000 2.862080
v 3.105779 1.644000 2.806080
v 3.105779 1.644000 1.568085
v 3.105779 0.756000 1.568085
v 3.105779 0.756000 2.806080
v 3.154779 0.700000 1.512085
v 3.135779 0.201100 -0.499997
v 3.135779 0.201100 -1.510991
v 3.154779 1.700000 1.512085
v 3.154779 1.644000 1.568085
v 3.154779 0.756000 1.568085
v 3.135779 0.201100 0.499997
v 3.154779 0.700000 2.862080
v 3.154779 0.756000 2.806080
v 3.154779 1.644000 2.806080
v 3.154779 1.700000 2.862080
v 3.135779 0.201100 1.510991
v 3.085779 0.201100 0.399999
v 3.085779 0.201100 -0.399999
v 3.085779 1.901100 -0.399999
v 3.085779 1.901100 0.399999
v -3.135779 0.200000 1.512091
v -3.135779 0.200000 2.862075
v -3.135779 2.200000 1.512091
v -3.135779 2.200000 2.862075
v -3.135779 0.700000 2.862075
v -3.135779 1.901100 -0.399999
v -3.135779 0.700000 1.512091
v -3.135779 1.901100 0.399999
v -3.135779 2.200000 -2.862075
v -3.135779 2.200000 -1.512091
v -3.135779 0.200000 -2.862075
v -3.135779 0.200000 -1.512091
v -3.135779 0.700000 -2.862075
v -3.135779 0.201100 0.399999
v -3.135779 0.201100 -0.399999
v -3.135779 2.001100 -0.499999
v -3.135779 2.001100 0.499999
v -3.135779 1.700000 2.862080
v -3.135779 1.700000 1.512085
v -3.105779 1.644000 1.568085
v -3.105779 1.644000 2.806080
v -3.105779 0.756000 2.806080
v -3.105779 0.756000 1.568085
v -3.154779 0.700000 2.862080
v -3.135779 2.198900 -1.510991
v -3.154779 1.700000 2.862080
v -3.154779 1.644000 2.806080
v -3.154779 0.756000 2.806080
v -3.154779 0.700000 1.512091
v -3.135779 2.198900 0.499997
v -3.154779 0.756000 1.568085
v -3.154779 1.644000 1.568085
v -3.154779 1.700000 1.512085
v -3.135779 2.198900 1.510991
v -3.135779 0.700000 -1.512085
v -3.135779 2.198900 -0.499997
v -3.135779 1.700000 -1.512085
v -3.135779 1.700000 -2.862080
v -3.105779 1.644000 -2.806080
v -3.105779 1.644000 -1.568085
v -3.105779 0.756000 -1.568085
v -3.105779 0.756000 -2.806080
v -3.135779 0.201100 0.499997
v -3.154779 0.700000 -1.512091
v -3.154779 1.700000 -1.512091
v -3.135779 0.201100 1.510991
v -3.154779 1.644000 -1.568085
v -3.154779 0.756000 -1.568085
v -3.154779 0.700000 -2.862075
v -3.135779 0.201100 -0.499997
v -3.154779 0.756000 -2.806080
v -3.154779 1.644000 -2.806080
v -3.135779 0.201100 -1.510991
v -3.154779 1.700000 -2.862075
v -3.085779 0.201100 -0.399999
v -3.085779 0.201100 0.399999
v -3.085779 1.901100 0.399999
v -3.085779 1.901100 -0.399999
vt 0.011958 0.572681
vt 0.513780 0.572681
vt 0.513780 0.986269
vt 0.011958 0.986269
vt 0.011958 0.572681
vt 0.513780 0.572681
vt 0.513780 0.986269
vt 0.011958 0.986269
vt 0.011958 0.572681
vt 0.513780 0.572681
vt 0.513780 0.986269
vt 0.011958 0.986269
vt 0.011958 0.572681
vt 0.513780 0.572681
vt 0.513780 0.986269
vt 0.011958 0.986269
vt 0.020748 0.019126
vt 0.646748 0.019126
vt 0.646748 0.534005
vt 0.020748 0.534005
vt 0.020748 0.019126
vt 0.646748 0.019126
vt 0.646748 0.534005
vt 0.020748 0.534005
vt 0.020748 0.019126
vt 0.646748 0.019126
vt 0.646748 0.534005
vt 0.020748 0.534005
vt 0.020748 0.019126
vt 0.646748 0.019126
vt 0.646748 0.534005
vt 0.020748 0.534005
vt 4.638944 3.175765
vt 6.286659 3.175765
vt 6.286658 -0.514967
vt 4.638944 -0.514967
vt 4.638949 0.407716
vt 4.638944 2.253082
vt -3.638944 3.175766
vt -5.286659 3.175765
vt -5.286659 -0.514966
vt -3.638944 -0.514966
vt -3.638944 0.407717
vt -3.638944 2.253083
vt 5.781576 3.175765
vt 7.641846 3.175765
vt 7.641846 -0.514968
vt 5.781574 -0.514967
vt 5.781585 0.407716
vt 5.781574 2.253082
vt -4.781575 3.175766
vt -6.641845 3.175765
vt -6.641847 -0.514966
vt -4.781575 -0.514966
vt -4.781584 0.407717
vt -4.781575 2.253083
vt -1.147714 3.175766
vt 0.500001 3.175765
vt 0.500000 -0.514966
vt -1.147714 -0.514966
vt -1.147710 0.407717
vt -1.147714 2.253083
vt 2.147714 3.175765
vt 2.147709 2.253082
vt 2.147709 0.407716
vt 2.147714 -0.514967
vt -5.286659 3.175765
vt -3.638944 3.175766
vt -3.638949 2.253083
vt -3.638944 0.407717
vt -3.638944 -0.514966
vt -5.286659 -0.514966
vt 2.147714 3.175765
vt 0.500001 3.175765
vt 0.500000 -0.514966
vt 2.147714 -0.514967
vt 2.147714 0.407716
vt 2.147714 2.253082
vt -1.147714 3.175766
vt -1.147710 2.253083
vt -1.147710 0.407717
vt -1.147714 -0.514966
vt 6.286659 3.175765
vt 4.638944 3.175765
vt 4.638949 2.253082
vt 4.638949 0.407716
vt 4.638944 -0.514967
vt 6.286658 -0.514967
vt 1.422677 -0.147924
vt -0.422681 -0.147924
vt -0.422677 -0.512937
vt 1.422677 -0.512937
vt -2.290350 0.407717
vt -2.290361 -0.514966
vt -2.290360 3.175766
vt -2.290360 2.253083
vt 7.641846 3.175765
vt 5.781576 3.175765
vt 5.781574 2.253082
vt 5.781585 0.407716
vt 5.781574 -0.514967
vt 7.641846 -0.514968
vt 3.290351 0.407716
vt 3.290361 -0.514967
vt 3.290360 3.175765
vt 3.290361 2.253082
vt 0.500000 -0.514966
vt 3.288331 -0.512937
vt -2.288331 -0.512936
vt -2.290350 2.253083
vt -2.290360 3.175766
vt -2.288331 3.173736
vt -2.288331 -0.512936
vt -2.290361 -0.514966
vt -2.290350 0.407717
vt -2.288331 3.173736
vt 3.288331 3.173735
vt 1.422677 3.173736
vt -0.422677 3.173736
vt 3.290351 0.407716
vt 3.290361 -0.514967
vt 3.290360 3.175765
vt 3.290361 2.253082
vt -6.641845 3.175765
vt -4.781575 3.175766
vt -4.781575 2.253083
vt -4.781584 0.407717
vt -4.781575 -0.514966
vt -6.641847 -0.514966
vt 0.500000 -0.514966
vt -0.422677 -0.512937
vt 1.422677 -0.512937
vt 3.288331 -0.512937
vt -0.422681 -0.147924
vt 1.422681 -0.147924
vt 0.500000 2.890155
vt 2.858492 2.890155
vt 2.856777 2.888439
vt 1.279873 2.888440
vt 1.123901 2.888440
vt -0.123900 2.888440
vt -0.279873 2.888440
vt -1.856777 2.888440
vt -1.858492 2.890156
vt 3.288331 3.173735
vt -0.422677 3.173736
vt 1.422677 3.173736
vt 0.419470 -1.517941
vt 0.419470 -0.992318
vt 0.419470 -0.288421
vt 0.419470 0.500000
vt 0.419470 1.288421
vt 0.419470 1.992318
vt 0.419470 2.517941
vt 0.419824 2.517941
vt 0.419824 -1.517941
vt 0.419470 2.517941
vt 0.419470 1.992318
vt 0.419470 1.288421
vt 0.419470 0.500000
vt 0.419470 -0.288421
vt 0.419470 -0.992318
vt 0.419470 -1.517941
vt 0.419824 -1.517941
vt 0.419824 2.517941
vt 0.419470 -1.135031
vt 0.419470 -0.669466
vt 0.419470 0.034436
vt 0.419470 0.500000
vt 0.419470 0.965564
vt 0.419470 1.669466
vt 0.419470 2.135031
vt 0.419824 2.135031
vt 0.419824 -1.135031
vt 0.419470 2.135031
vt 0.419470 1.669466
vt 0.419470 0.965564
vt 0.419470 0.500000
vt 0.419470 0.034436
vt 0.419470 -0.669466
vt 0.419470 -1.135031
vt 0.419824 -1.135031
vt 0.419824 2.135031
vt 1.776158 -1.187171
vt 1.776158 0.500000
vt 1.744015 0.500000
vt -0.744015 0.500000
vt -0.776159 0.500000
vt -0.776158 -1.187171
vt 1.776158 2.187171
vt -0.776158 2.187171
vt -3.944221 -4.952854
vt -3.944221 5.952854
vt -3.806875 5.815508
vt -3.806875 -4.815508
vt -3.944221 0.362654
vt 4.944220 0.362654
vt 4.944220 0.637346
vt -3.944221 0.637346
vt -4.952854 0.362654
vt 5.952854 0.362654
vt 5.952854 0.637346
vt -4.952854 0.637346
vt 5.952854 0.362654
vt -4.952854 0.362654
vt -4.952854 0.637346
vt 5.952854 0.637346
vt 4.944220 0.362654
vt -3.944221 0.362654
vt -3.944221 0.637346
vt 4.944220 0.637346
vt 4.944220 -4.952854
vt 4.806874 -4.815508
vt 4.944220 5.952854
vt 4.806874 5.815508
vt -3.944221 -4.952854
vt 4.944220 -4.952854
vt 4.806874 -4.815508
vt 3.580520 -4.815508
vt 1.726355 -4.815508
vt 0.500000 -4.815508
vt -0.726355 -4.815508
vt -2.580519 -4.815508
vt -3.806875 -4.815508
vt 4.944220 5.952854
vt 4.806874 5.815508
vt 4.806874 4.430953
vt 4.806874 2.576800
vt 4.806874 0.500000
vt 4.806874 -1.576800
vt 4.806874 -3.430952
vt -3.944221 5.952854
vt -3.806875 5.815508
vt -2.580519 5.815508
vt -0.726355 5.815508
vt 0.500000 5.815508
vt 1.726355 5.815508
vt 3.580520 5.815508
vt -3.806875 -3.430952
vt -3.806875 -1.576800
vt -3.806875 0.500000
vt -3.806875 2.576800
vt -3.806875 4.430953
vt -7.256359 0.693410
vt 8.624248 0.693409
vt 8.424247 0.493410
vt -7.056359 0.493411
vt 8.425821 0.499109
vt -7.454785 0.499110
vt -7.254785 0.699110
vt 8.225822 0.699109
vt 10.861220 0.233968
vt -9.605298 0.233968
vt -9.605298 0.491722
vt 10.861220 0.491722
vt -2.232133 0.504136
vt 4.612137 0.504136
vt 4.612137 0.715654
vt -2.232133 0.715654
vt -9.605298 0.233968
vt 10.861220 0.233968
vt 10.861220 0.491722
vt -9.605298 0.491722
vt 4.612137 0.504136
vt -2.232133 0.504136
vt -2.232133 0.715654
vt 4.612137 0.715654
vt -1.210937 0.498176
vt 5.260620 0.498176
vt 5.260620 0.698176
vt -1.210937 0.698176
vt 5.260620 0.498176
vt -1.210937 0.498176
vt -1.210937 0.698176
vt 5.260620 0.698176
vt -5.971557 8.440303
vt 0.500000 8.440303
vt 0.500000 8.240303
vt -5.771557 8.240303
vt 6.971557 8.440303
vt 6.771557 8.240303
vt 6.971557 -7.440303
vt 0.500000 -7.440303
vt 0.500000 -7.240303
vt 6.771557 -7.240303
vt -5.971557 -7.440303
vt -5.771557 -7.240303
vt -0.922455 1.433330
vt 1.553541 1.433330
vt 1.553541 1.335330
vt -0.922455 1.335330
vt -0.388000 -0.433330
vt 1.388000 -0.433330
vt 1.388000 -0.335330
vt -0.388000 -0.335330
vt -0.388000 -0.433330
vt 1.388000 -0.433330
vt 1.388000 -0.335330
vt -0.388000 -0.335330
vt 1.553541 1.433330
vt -0.922455 1.433330
vt -0.922455 1.335330
vt 1.553541 1.335330
vt 1.388000 -0.433330
vt -0.388000 -0.433330
vt -0.388000 -0.335330
vt 1.388000 -0.335330
vt -0.500000 2.034450
vt 1.500000 2.034455
vt 1.388000 1.922455
vt -0.388000 1.922455
vt -0.500000 -0.665540
vt -0.388000 -0.553540
vt 1.388000 -0.553540
vt 1.500000 -0.665535
vt 1.553541 1.388000
vt -0.922455 1.388000
vt -1.034455 1.500000
vt 1.665541 1.500000
vt 1.665541 -0.500000
vt -1.034455 -0.500000
vt -0.922455 -0.388000
vt 1.553541 -0.388000
vt 1.922455 1.433330
vt -0.553540 1.433330
vt -0.553540 1.335330
vt 1.922455 1.335330
vt -0.500000 -0.395330
vt 1.500000 -0.395330
vt 1.500000 -0.433330
vt -0.500000 -0.433330
vt 1.500000 -0.395330
vt -0.500000 -0.395330
vt -0.500000 -0.433330
vt 1.500000 -0.433330
vt -1.034455 1.395330
vt 1.665541 1.395330
vt 1.665541 1.433330
vt -1.034455 1.433330
vt 1.665541 1.395330
vt -1.034455 1.395330
vt -1.034455 1.433330
vt 1.665541 1.433330
vt 1.388000 -0.433330
vt -0.388000 -0.433330
vt -0.388000 -0.335330
vt 1.388000 -0.335330
vt -0.553540 1.433330
vt 1.922455 1.433330
vt 1.922455 1.335330
vt -0.553540 1.335330
vt -0.500000 1.665535
vt 1.500000 1.665540
vt 1.388000 1.553540
vt -0.388000 1.553540
vt -0.500000 -1.034455
vt -0.388000 -0.922455
vt 1.388000 -0.922455
vt 1.500000 -1.034450
vt 1.922455 1.388000
vt -0.553540 1.388000
vt -0.665540 1.500000
vt 2.034455 1.500000
vt 2.034455 -0.500000
vt -0.665540 -0.500000
vt -0.553540 -0.388000
vt 1.922455 -0.388000
vt -0.500000 -0.395330
vt 1.500000 -0.395330
vt 1.500000 -0.433330
vt -0.500000 -0.433330
vt -0.665540 1.395330
vt 2.034455 1.395330
vt 2.034455 1.433330
vt -0.665540 1.433330
vt 1.500000 -0.395330
vt -0.500000 -0.395330
vt -0.500000 -0.433330
vt 1.500000 -0.433330
vt 2.034455 1.395330
vt -0.665540 1.395330
vt -0.665540 1.433330
vt 2.034455 1.433330
vt 1.737997 0.478249
vt -0.737998 0.478249
vt -0.737998 0.576249
vt 1.737997 0.576249
vt -0.388000 0.521751
vt 1.388000 0.521751
vt 1.388000 0.423751
vt -0.388000 0.423751
vt -0.388000 0.521751
vt 1.388000 0.521751
vt 1.388000 0.423751
vt -0.388000 0.423751
vt -0.737998 0.478249
vt 1.737997 0.478249
vt 1.737997 0.576249
vt -0.737998 0.576249
vt 1.388000 0.521751
vt -0.388000 0.521751
vt -0.388000 0.423751
vt 1.388000 0.423751
vt -0.500000 -0.849992
vt 1.500000 -0.849997
vt 1.388000 -0.737997
vt -0.388000 -0.737997
vt -0.500000 1.849998
vt -0.388000 1.737998
vt 1.388000 1.737998
vt 1.500000 1.849993
vt -0.737998 1.388000
vt 1.737997 1.388000
vt 1.849997 1.500000
vt -0.849998 1.500000
vt -0.849998 -0.500000
vt 1.849997 -0.500000
vt 1.737997 -0.388000
vt -0.737998 -0.388000
vt -0.737998 0.478249
vt 1.737998 0.478249
vt 1.737998 0.576249
vt -0.737998 0.576249
vt -0.500000 0.483751
vt 1.500000 0.483751
vt 1.500000 0.521751
vt -0.500000 0.521751
vt 1.500000 0.483751
vt -0.500000 0.483751
vt -0.500000 0.521751
vt 1.500000 0.521751
vt 1.849997 0.516249
vt -0.849998 0.516249
vt -0.849998 0.478249
vt 1.849997 0.478249
vt -0.849998 0.516249
vt 1.849997 0.516249
vt 1.849997 0.478249
vt -0.849998 0.478249
vt 1.388000 0.521751
vt -0.388000 0.521751
vt -0.388000 0.423751
vt 1.388000 0.423751
vt 1.737998 0.478249
vt -0.737998 0.478249
vt -0.737998 0.576249
vt 1.737998 0.576249
vt -0.500000 -0.849993
vt 1.500000 -0.849998
vt 1.388000 -0.737998
vt -0.388000 -0.737997
vt -0.500000 1.849998
vt -0.388000 1.737998
vt 1.388000 1.737998
vt 1.500000 1.849993
vt -0.737998 1.388000
vt 1.737998 1.388000
vt 1.849998 1.500000
vt -0.849998 1.500000
vt -0.849998 -0.500000
vt 1.849998 -0.500000
vt 1.737998 -0.388000
vt -0.737998 -0.388000
vt -0.500000 0.483751
vt 1.500000 0.483751
vt 1.500000 0.521751
vt -0.500000 0.521751
vt 1.849998 0.516249
vt -0.849998 0.516249
vt -0.849998 0.478249
vt 1.849998 0.478249
vt 1.500000 0.483751
vt -0.500000 0.483751
vt -0.500000 0.521751
vt 1.500000 0.521751
vt -0.849998 0.516249
vt 1.849998 0.516249
vt 1.849998 0.478249
vt -0.849998 0.478249
vt 1.388000 0.478251
vt -0.388000 0.478251
vt -0.388000 0.576251
vt 1.388000 0.576251
vt -0.388000 0.478251
vt 1.388000 0.478251
vt 1.388000 0.576251
vt -0.388000 0.576251
vt 0.521749 1.737995
vt 0.521749 -0.737995
vt 0.423749 -0.737995
vt 0.423749 1.737995
vt 0.521749 -0.388000
vt 0.521749 1.388000
vt 0.423749 1.388000
vt 0.423749 -0.388000
vt 0.521749 -0.737995
vt 0.521749 1.737995
vt 0.423749 1.737995
vt 0.423749 -0.737995
vt -0.500000 -0.849984
vt 1.500000 -0.849994
vt 1.388000 -0.737994
vt -0.388000 -0.737994
vt -0.500000 1.849995
vt -0.388000 1.737995
vt 1.388000 1.737995
vt 1.500000 1.849984
vt -0.737995 1.388000
vt 1.737995 1.388000
vt 1.849995 1.500000
vt -0.849995 1.500000
vt -0.849995 -0.500000
vt 1.849995 -0.500000
vt 1.737995 -0.388000
vt -0.737995 -0.388000
vt 0.521749 -0.737995
vt 0.521749 1.737995
vt 0.423749 1.737995
vt 0.423749 -0.737995
vt -0.500000 0.516251
vt 1.500000 0.516251
vt 1.500000 0.478251
vt -0.500000 0.478251
vt 1.500000 0.516251
vt -0.500000 0.516251
vt -0.500000 0.478251
vt 1.500000 0.478251
vt 0.483749 1.849995
vt 0.483749 -0.849995
vt 0.521749 -0.849995
vt 0.521749 1.849995
vt 0.483749 -0.849995
vt 0.483749 1.849995
vt 0.521749 1.849995
vt 0.521749 -0.849995
vt 1.388000 0.478251
vt -0.388000 0.478251
vt -0.388000 0.576251
vt 1.388000 0.576251
vt 0.521749 1.737995
vt 0.521749 -0.737995
vt 0.423749 -0.737995
vt 0.423749 1.737995
vt -0.500000 -0.849984
vt 1.500000 -0.849994
vt 1.388000 -0.737994
vt -0.388000 -0.737994
vt -0.500000 1.849995
vt -0.388000 1.737995
vt 1.388000 1.737995
vt 1.500000 1.849984
vt -0.737995 1.388000
vt 1.737995 1.388000
vt 1.849995 1.500000
vt -0.849995 1.500000
vt -0.849995 -0.500000
vt 1.849995 -0.500000
vt 1.737995 -0.388000
vt -0.737995 -0.388000
vt -0.500000 0.516251
vt 1.500000 0.516251
vt 1.500000 0.478251
vt -0.500000 0.478251
vt 0.483749 1.849995
vt 0.483749 -0.849995
vt 0.521749 -0.849995
vt 0.521749 1.849995
vt 1.500000 0.516251
vt -0.500000 0.516251
vt -0.500000 0.478251
vt 1.500000 0.478251
vt 0.483749 -0.849995
vt 0.483749 1.849995
vt 0.521749 1.849995
vt 0.521749 -0.849995
vt 1.299998 1.822857
vt -0.299998 1.822857
vt -0.499998 2.022857
vt 1.499998 2.022857
vt 0.478251 -0.737995
vt 0.478251 1.737994
vt 0.576251 1.737994
vt 0.576251 -0.737995
vt -0.388000 0.521750
vt 1.388000 0.521750
vt 1.388000 0.423750
vt -0.388000 0.423750
vt -0.388000 0.521750
vt 1.388000 0.521750
vt 1.388000 0.423750
vt -0.388000 0.423750
vt 0.478251 1.737994
vt 0.478251 -0.737995
vt 0.576251 -0.737995
vt 0.576251 1.737994
vt 1.388000 0.521750
vt -0.388000 0.521750
vt -0.388000 0.423750
vt 1.388000 0.423750
vt -0.500000 1.849985
vt 1.500000 1.849995
vt 1.388000 1.737995
vt -0.388000 1.737996
vt -0.500000 -0.849994
vt -0.388000 -0.737994
vt 1.388000 -0.737994
vt 1.500000 -0.849983
vt 1.737994 1.388000
vt -0.737995 1.388000
vt -0.849995 1.500000
vt 1.849994 1.500000
vt 1.849994 -0.500000
vt -0.849995 -0.500000
vt -0.737995 -0.388000
vt 1.737994 -0.388000
vt 0.478251 1.737994
vt 0.478251 -0.737995
vt 0.576251 -0.737995
vt 0.576251 1.737994
vt -0.500000 0.483750
vt 1.500000 0.483750
vt 1.500000 0.521750
vt -0.500000 0.521750
vt 1.500000 0.483750
vt -0.500000 0.483750
vt -0.500000 0.521750
vt 1.500000 0.521750
vt 0.516251 -0.849995
vt 0.516251 1.849994
vt 0.478251 1.849994
vt 0.478251 -0.849995
vt 0.516251 1.849994
vt 0.516251 -0.849995
vt 0.478251 -0.849995
vt 0.478251 1.849994
vt 1.388000 0.521750
vt -0.388000 0.521750
vt -0.388000 0.423750
vt 1.388000 0.423750
vt 0.478251 -0.737995
vt 0.478251 1.737994
vt 0.576251 1.737994
vt 0.576251 -0.737995
vt -0.500000 1.849985
vt 1.500000 1.849995
vt 1.388000 1.737995
vt -0.388000 1.737995
vt -0.500000 -0.849994
vt -0.388000 -0.737994
vt 1.388000 -0.737994
vt 1.500000 -0.849983
vt 1.737994 1.388000
vt -0.737995 1.388000
vt -0.849995 1.500000
vt 1.849994 1.500000
vt 1.849994 -0.500000
vt -0.849995 -0.500000
vt -0.737995 -0.388000
vt 1.737994 -0.388000
vt -1.300002 1.022853
vt -1.300002 1.222849
vt 2.299998 1.222853
vt 2.099998 1.022853
vt -0.500000 0.483750
vt 1.500000 0.483750
vt 1.500000 0.521750
vt -0.500000 0.521750
vt 0.516251 -0.849995
vt 0.516251 1.849994
vt 0.478251 1.849994
vt 0.478251 -0.849995
vt 1.500000 0.483750
vt -0.500000 0.483750
vt -0.500000 0.521750
vt 1.500000 0.521750
vt 0.516251 1.849994
vt 0.516251 -0.849995
vt 0.478251 -0.849995
vt 0.478251 1.849994
vt -1.300002 -0.777139
vt -1.300002 -0.577143
vt 2.099998 -0.577143
vt 2.299998 -0.777139
vt 2.099998 0.251426
vt -1.300002 0.251426
vt -1.300002 0.151426
vt 2.099998 0.151426
vt 1.577139 0.251426
vt -0.022857 0.251426
vt -0.022857 0.151426
vt 1.577139 0.151426
vt -1.300002 0.251426
vt 2.099998 0.251426
vt 2.099998 0.151426
vt -1.300002 0.151426
vt -0.022857 0.251426
vt 1.577139 0.251425
vt 1.577139 0.151426
vt -0.022857 0.151426
vt 0.845078 1.397651
vt 0.845079 -3.419550
vt 0.154921 -1.010949
vt 0.845079 -3.419550
vt 0.845078 1.397651
vt 0.154921 -1.010949
vt 0.223820 1.064974
vt 0.776180 1.064974
vt 0.845225 1.134019
vt 0.154776 1.134019
vt 0.500000 -0.109553
vt 1.544025 -0.109553
vt 1.543266 -0.108793
vt 0.845224 -0.108793
vt 0.776180 -0.108793
vt 0.223820 -0.108793
vt 0.154776 -0.108793
vt -0.543266 -0.108793
vt -0.544025 -0.109553
vt -0.121406 0.888841
vt -0.121406 0.819798
vt 1.052362 0.819798
vt 1.121407 0.888841
vt -0.121406 0.267438
vt -0.121406 0.198394
vt 1.121407 0.198393
vt 1.052362 0.267438
vt -0.121406 0.534987
vt 1.052362 0.534987
vt 1.052362 0.569509
vt -0.121406 0.569509
vt 0.940368 0.470641
vt 0.029969 0.470641
vt 0.029969 0.527541
vt 0.940368 0.527541
vt 0.040649 0.470921
vt 0.942090 0.470921
vt 0.942090 0.527261
vt 0.040649 0.527261
vt 1.052362 0.534987
vt -0.121406 0.534987
vt -0.121406 0.569509
vt 1.052362 0.569509
vt 0.958142 0.817308
vt 0.698476 0.817308
vt 0.698476 0.996434
vt 0.958142 0.996434
vt 0.011722 0.003737
vt 0.286414 0.003737
vt 0.286414 0.212420
vt 0.011722 0.212420
vn 0.0000 0.0000 -1.0000
vn 0.0000 0.0000 1.0000
vn 1.0000 0.0000 0.0000
vn -1.0000 0.0000 0.0000
vn -1.0000 -0.0001 0.0000
vn 0.3087 0.9512 0.0000
vn -0.3087 0.9512 0.0000
vn 0.0000 -1.0000 0.0000
vn 0.0000 1.0000 0.0000
vn 0.4472 -0.8944 0.0000
vn -0.4472 -0.8944 0.0000
vn 0.3052 -0.9485 0.0845
vn -0.3052 -0.9485 0.0845
vn -0.3052 -0.9485 -0.0845
vn 0.3052 -0.9485 -0.0845
vn -1.0000 -0.0000 0.0001
vn 1.0000 0.0000 -0.0001
vn 0.0001 -0.0000 -1.0000
vn -0.0001 -0.0000 -1.0000
vn -0.0002 -0.0000 1.0000
vn 0.0002 -0.0000 1.0000
vn -0.0003 0.0000 1.0000
vn 1.0000 -0.0001 0.0000
usemtl Windows
s off
f 60/1/1 59/2/1 58/3/1 57/4/1
f 74/5/1 73/6/1 72/7/1 71/8/1
f 102/9/2 101/10/2 100/11/2 99/12/2
f 116/13/2 115/14/2 114/15/2 113/16/2
f 150/17/3 149/18/3 148/19/3 147/20/3
f 170/21/3 169/22/3 168/23/3 167/24/3
f 209/25/4 208/26/4 207/27/4 206/28/4
f 228/29/4 227/30/4 226/31/4 225/32/4
usemtl Walls
f 44/33/1 20/34/1 12/35/1 46/36/1 55/37/1 47/38/1
f 86/39/2 18/40/2 10/41/2 88/42/2 90/43/2 89/44/2
f 188/45/4 17/46/4 9/47/4 190/48/4 204/49/4 191/50/4
f 128/51/3 19/52/3 11/53/3 130/54/3 145/55/3 133/56/3
f 49/57/1 41/58/1 42/59/1 51/60/1 70/61/1 53/62/1
f 41/58/1 43/63/1 54/64/1 56/65/1 45/66/1 42/59/1
f 56/65/1 55/37/1 46/36/1 45/66/1
f 43/63/1 44/33/1 47/38/1 54/64/1
f 19/67/1 48/68/1 69/69/1 52/70/1 50/71/1 11/72/1
f 52/70/1 70/61/1 51/60/1 50/71/1
f 48/68/1 49/57/1 53/62/1 69/69/1
f 92/73/2 83/74/2 84/75/2 94/76/2 96/77/2 95/78/2
f 83/74/2 85/79/2 97/80/2 98/81/2 87/82/2 84/75/2
f 98/81/2 90/43/2 88/42/2 87/82/2
f 85/79/2 86/39/2 89/44/2 97/80/2
f 17/83/2 91/84/2 111/85/2 112/86/2 93/87/2 9/88/2
f 112/86/2 96/77/2 94/76/2 93/87/2
f 91/84/2 92/73/2 95/78/2 111/85/2
f 151/89/3 144/90/3 162/91/3 164/92/3
f 146/93/3 145/55/3 130/54/3 129/94/3
f 127/95/3 128/51/3 133/56/3 131/96/3
f 18/97/3 135/98/3 139/99/3 166/100/3 137/101/3 10/102/3
f 166/100/3 165/103/3 138/104/3 137/101/3
f 135/98/3 136/105/3 141/106/3 139/99/3
f 126/107/3 138/104/3 158/108/3 164/92/3 162/91/3 163/109/3 129/94/3
f 221/110/4 198/111/4 239/112/4 211/113/4 196/114/4 223/115/4
f 146/93/3 129/94/3 163/109/3 173/116/3 127/95/3 131/96/3
f 165/103/3 141/106/3 136/105/3 182/117/3 158/108/3 138/104/3
f 182/117/3 177/118/3 151/89/3 164/92/3 158/108/3
f 172/119/3 173/116/3 163/109/3 162/91/3 144/90/3
f 205/120/4 204/49/4 190/48/4 189/121/4
f 187/122/4 188/45/4 191/50/4 193/123/4
f 20/124/4 197/125/4 199/126/4 224/127/4 195/128/4 12/129/4
f 224/127/4 223/115/4 196/114/4 195/128/4
f 197/125/4 198/111/4 221/110/4 199/126/4
f 143/130/4 196/114/4 211/113/4 222/131/4 216/132/4 220/133/4 189/121/4
f 202/134/4 203/135/4 216/132/4 222/131/4
f 154/136/5 187/137/5 232/138/5 229/139/5 200/140/5 201/141/5 236/142/5 239/143/5 198/144/5
f 205/120/4 189/121/4 220/133/4 232/145/4 187/122/4 193/123/4
f 239/112/4 236/146/4 202/134/4 222/131/4 211/113/4
f 229/147/4 232/145/4 220/133/4 216/132/4 203/135/4
usemtl Roof
f 12/148/4 195/149/4 196/150/4 143/151/4 189/152/4 190/153/4 9/154/4 36/155/4 35/156/4
f 10/157/3 137/158/3 138/159/3 126/160/3 129/161/3 130/162/3 11/163/3 34/164/3 33/165/3
f 11/166/1 50/167/1 51/168/1 42/169/1 45/170/1 46/171/1 12/172/1 35/173/1 34/174/1
f 9/175/2 93/176/2 94/177/2 84/178/2 87/179/2 88/180/2 10/181/2 33/182/2 36/183/2
f 27/184/6 28/185/6 39/186/6 40/187/6 29/188/6 30/189/6
f 31/190/7 32/191/7 29/188/7 40/187/7 39/186/7 28/185/7
usemtl Slabs
f 14/192/8 13/193/8 3/194/8 1/195/8
f 14/196/2 15/197/2 6/198/2 5/199/2
f 15/200/3 16/201/3 7/202/3 6/203/3
f 13/204/4 14/205/4 5/206/4 8/207/4
f 16/208/1 13/209/1 8/210/1 7/211/1
f 15/212/8 14/192/8 1/195/8 2/213/8
f 16/214/8 15/212/8 2/213/8 4/215/8
f 13/193/8 16/214/8 4/215/8 3/194/8
f 5/216/9 6/217/9 18/218/9 86/219/9 85/220/9 83/221/9 92/222/9 91/223/9 17/224/9
f 6/217/9 7/225/9 19/226/9 128/227/9 127/228/9 125/229/9 136/230/9 135/231/9 18/218/9
f 7/225/9 8/232/9 20/233/9 44/234/9 43/235/9 41/236/9 49/237/9 48/238/9 19/226/9
f 8/232/9 5/216/9 17/224/9 188/239/9 187/240/9 154/241/9 198/242/9 197/243/9 20/233/9
usemtl RoofHangs
f 21/244/10 24/245/10 35/246/10 36/247/10
f 23/248/11 22/249/11 33/250/11 34/251/11
f 24/252/4 21/253/4 32/254/4 31/255/4
f 21/256/2 26/257/2 29/258/2 32/259/2
f 22/260/3 23/261/3 27/262/3 30/263/3
f 25/264/1 24/265/1 31/266/1 28/267/1
f 26/268/2 22/269/2 30/270/2 29/271/2
f 23/272/1 25/273/1 28/274/1 27/275/1
f 24/276/12 25/277/12 37/278/12 35/279/12
f 25/277/13 23/280/13 34/281/13 37/278/13
f 22/282/14 26/283/14 38/284/14 33/285/14
f 26/283/15 21/286/15 36/287/15 38/284/15
f 63/288/8 67/289/8 57/290/8 58/291/8
f 78/292/3 77/293/3 72/294/3 73/295/3
f 64/296/3 63/297/3 58/298/3 59/299/3
f 66/300/9 64/301/9 59/302/9 60/303/9
f 67/304/4 66/305/4 60/306/4 57/307/4
f 61/308/1 62/309/1 63/310/1 64/311/1
f 65/312/1 66/313/1 67/314/1 68/315/1
f 67/316/1 63/317/1 62/318/1 68/319/1
f 65/320/1 61/321/1 64/322/1 66/323/1
f 80/324/9 78/325/9 73/326/9 74/327/9
f 47/328/16 55/329/16 62/330/16 61/331/16
f 56/332/3 54/333/3 65/334/3 68/335/3
f 55/336/9 56/337/9 68/338/9 62/339/9
f 54/340/8 47/341/8 61/342/8 65/343/8
f 81/344/4 80/345/4 74/346/4 71/347/4
f 77/348/8 81/349/8 71/350/8 72/351/8
f 75/352/1 76/353/1 77/354/1 78/355/1
f 79/356/1 80/357/1 81/358/1 82/359/1
f 81/360/1 77/361/1 76/362/1 82/363/1
f 79/364/1 75/365/1 78/366/1 80/367/1
f 53/368/16 70/369/16 76/370/16 75/371/16
f 70/372/9 52/373/9 82/374/9 76/375/9
f 52/376/3 69/377/3 79/378/3 82/379/3
f 69/380/8 53/381/8 75/382/8 79/383/8
f 105/384/8 109/385/8 99/386/8 100/387/8
f 120/388/4 119/389/4 114/390/4 115/391/4
f 106/392/4 105/393/4 100/394/4 101/395/4
f 108/396/9 106/397/9 101/398/9 102/399/9
f 109/400/3 108/401/3 102/402/3 99/403/3
f 103/404/2 104/405/2 105/406/2 106/407/2
f 107/408/2 108/409/2 109/410/2 110/411/2
f 109/412/2 105/413/2 104/414/2 110/415/2
f 107/416/2 103/417/2 106/418/2 108/419/2
f 122/420/9 120/421/9 115/422/9 116/423/9
f 89/424/17 90/425/17 104/426/17 103/427/17
f 98/428/16 97/429/16 107/430/16 110/431/16
f 90/432/9 98/433/9 110/434/9 104/435/9
f 97/436/8 89/437/8 103/438/8 107/439/8
f 123/440/3 122/441/3 116/442/3 113/443/3
f 119/444/8 123/445/8 113/446/8 114/447/8
f 117/448/2 118/449/2 119/450/2 120/451/2
f 121/452/2 122/453/2 123/454/2 124/455/2
f 123/456/2 119/457/2 118/458/2 124/459/2
f 121/460/2 117/461/2 120/462/2 122/463/2
f 95/464/3 96/465/3 118/466/3 117/467/3
f 96/468/9 112/469/9 124/470/9 118/471/9
f 112/472/4 111/473/4 121/474/4 124/475/4
f 111/476/8 95/477/8 117/478/8 121/479/8
f 160/480/1 159/481/1 150/482/1 147/483/1
f 176/484/2 175/485/2 168/486/2 169/487/2
f 155/488/8 160/489/8 147/490/8 148/491/8
f 156/492/2 155/493/2 148/494/2 149/495/2
f 159/496/9 156/497/9 149/498/9 150/499/9
f 152/500/3 153/501/3 155/502/3 156/503/3
f 157/504/3 159/505/3 160/506/3 161/507/3
f 160/508/3 155/509/3 153/510/3 161/511/3
f 157/512/3 152/513/3 156/514/3 159/515/3
f 179/516/9 176/517/9 169/518/9 170/519/9
f 133/520/18 145/521/18 153/522/18 152/523/18
f 146/524/2 131/525/2 157/526/2 161/527/2
f 145/528/9 146/529/9 161/530/9 153/531/9
f 131/532/8 133/533/8 152/534/8 157/535/8
f 180/536/1 179/537/1 170/538/1 167/539/1
f 175/540/8 180/541/8 167/542/8 168/543/8
f 171/544/3 174/545/3 175/546/3 176/547/3
f 178/548/3 179/549/3 180/550/3 181/551/3
f 180/552/3 175/553/3 174/554/3 181/555/3
f 178/556/3 171/557/3 176/558/3 179/559/3
f 141/560/19 165/561/19 174/562/19 171/563/19
f 165/564/9 166/565/9 181/566/9 174/567/9
f 166/568/20 139/569/20 178/570/20 181/571/20
f 139/572/8 141/573/8 171/574/8 178/575/8
f 192/576/4 194/577/4 203/578/4 202/579/4
f 213/580/8 218/581/8 206/582/8 207/583/8
f 234/584/1 233/585/1 226/586/1 227/587/1
f 214/588/1 213/589/1 207/590/1 208/591/1
f 217/592/9 214/593/9 208/594/9 209/595/9
f 218/596/2 217/597/2 209/598/2 206/599/2
f 210/600/4 212/601/4 213/602/4 214/603/4
f 215/604/4 217/605/4 218/606/4 219/607/4
f 218/608/4 213/609/4 212/610/4 219/611/4
f 215/612/4 210/613/4 214/614/4 217/615/4
f 237/616/9 234/617/9 227/618/9 228/619/9
f 191/620/21 204/621/21 212/622/21 210/623/21
f 205/624/1 193/625/1 215/626/1 219/627/1
f 204/628/9 205/629/9 219/630/9 212/631/9
f 193/632/8 191/633/8 210/634/8 215/635/8
f 238/636/2 237/637/2 228/638/2 225/639/2
f 233/640/8 238/641/8 225/642/8 226/643/8
f 230/644/4 231/645/4 233/646/4 234/647/4
f 235/648/4 237/649/4 238/650/4 240/651/4
f 238/652/4 233/653/4 231/654/4 240/655/4
f 235/656/4 230/657/4 234/658/4 237/659/4
f 200/660/4 229/661/4 203/662/4 194/663/4
f 221/664/22 223/665/22 231/666/22 230/667/22
f 223/668/9 224/669/9 240/670/9 231/671/9
f 224/672/19 199/673/19 235/674/19 240/675/19
f 199/676/8 221/677/8 230/678/8 235/679/8
f 236/680/4 201/681/4 192/682/4 202/683/4
f 192/684/2 201/685/2 241/686/2 244/687/2
f 201/688/9 200/689/9 242/690/9 241/691/9
f 200/692/1 194/693/1 243/694/1 242/695/1
f 194/696/8 192/697/8 244/698/8 243/699/8
usemtl DoorFrame
f 36/700/2 33/701/2 38/702/2
f 34/703/1 35/704/1 37/705/1
f 132/706/3 134/707/3 144/708/3 151/709/3
f 125/710/23 127/711/23 173/712/23 172/713/23 140/714/23 142/715/23 177/716/23 182/717/23 136/718/23
f 177/719/3 142/720/3 132/721/3 151/722/3
f 140/723/3 172/724/3 144/725/3 134/726/3
f 140/727/2 134/728/2 185/729/2 184/730/2
f 134/731/8 132/732/8 186/733/8 185/734/8
f 142/735/9 140/736/9 184/737/9 183/738/9
f 132/739/1 142/740/1 183/741/1 186/742/1
usemtl Door
f 183/743/3 184/744/3 185/745/3 186/746/3
usemtl BackDoor
f 241/747/4 242/748/4 243/749/4 244/750/4
o Cube
v 2.727425 2.291857 3.127855
v 2.744078 2.376115 3.127855
v 2.727425 2.291857 -3.127855
v 2.744078 2.376115 -3.127855
v 4.888936 1.825655 3.127855
v 4.905590 1.909913 3.127855
v 4.888936 1.825655 -3.127855
v 4.905590 1.909913 -3.127855
vt 1.765002 0.142340
vt 1.765002 1.036490
vt -0.765002 1.036490
vt -0.765002 0.142340
vt 1.038037 0.509635
vt 1.038037 0.474899
vt 0.143886 0.490365
vt 0.143886 0.525101
vt -0.763455 0.525101
vt -0.763455 0.490365
vt 1.766548 0.490364
vt 1.766548 0.525100
vt 0.143886 0.525101
vt 0.143886 0.490365
vt 1.038037 0.474899
vt 1.038037 0.509635
vt 4.391058 1.964588
vt 4.391058 -0.785758
vt -3.391058 -0.785758
vt -3.391058 1.964588
vn 0.2108 0.9775 0.0000
vn 0.0000 0.0000 -1.0000
vn 0.9810 -0.1939 0.0000
vn 0.0000 0.0000 1.0000
vn -0.2108 -0.9775 0.0000
usemtl Roof
s off
f 252/751/24 248/752/24 246/753/24 250/754/24
usemtl RoofHangs
f 247/755/25 248/756/25 252/757/25 251/758/25
f 251/759/26 252/760/26 250/761/26 249/762/26
f 249/763/27 250/764/27 246/765/27 245/766/27
f 247/767/28 251/768/28 249/769/28 245/770/28
o Cube.001
v 4.731461 -0.273586 -2.925545
v 4.731461 1.903387 -2.925545
v 4.731461 -0.273586 -2.990742
v 4.731461 1.903387 -2.990742
v 4.796658 -0.273586 -2.925545
v 4.796658 1.903387 -2.925545
v 4.796658 -0.273586 -2.990742
v 4.796658 1.903387 -2.990742
vt -1.061524 0.671300
vt 2.056603 0.671300
vt 2.056603 0.577916
vt -1.061524 0.577916
vt -1.061524 0.671300
vt 2.056603 0.671300
vt 2.056603 0.577916
vt -1.061524 0.577916
vt 2.056603 0.671300
vt -1.061524 0.671300
vt -1.061524 0.577916
vt 2.056603 0.577916
vt 0.232418 0.671300
vt 0.232418 0.577916
vt 0.139035 0.577916
vt 0.139035 0.671300
vn -1.0000 0.0000 0.0000
vn 0.0000 0.0000 -1.0000
vn 1.0000 0.0000 0.0000
vn 0.0000 0.0000 1.0000
vn 0.0000 -1.0000 0.0000
usemtl DoorFrame
s off
f 253/771/29 254/772/29 256/773/29 255/774/29
f 255/775/30 256/776/30 260/777/30 259/778/30
f 259/778/31 260/777/31 258/779/31 257/780/31
f 257/781/32 258/782/32 254/772/32 253/771/32
f 255/783/33 259/784/33 257/785/33 253/786/33
o Cube.002_Cube.003
v 4.731461 -0.273586 -0.893717
v 4.731461 1.903387 -0.893717
v 4.731461 -0.273586 -0.958914
v 4.731461 1.903387 -0.958914
v 4.796658 -0.273586 -0.893717
v 4.796658 1.903387 -0.893717
v 4.796658 -0.273586 -0.958914
v 4.796658 1.903387 -0.958914
vt -0.712114 0.658219
vt 1.532487 0.658219
vt 1.532487 0.590997
vt -0.712114 0.590997
vt -0.712114 0.658219
vt 1.532487 0.658219
vt 1.532487 0.590997
vt -0.712114 0.590997
vt 1.532487 0.658219
vt -0.712114 0.658219
vt -0.712114 0.590997
vt 1.532487 0.590997
vt 0.219337 0.658219
vt 0.219337 0.590997
vt 0.152115 0.590997
vt 0.152115 0.658219
vn -1.0000 0.0000 0.0000
vn 0.0000 0.0000 -1.0000
vn 1.0000 0.0000 0.0000
vn 0.0000 0.0000 1.0000
vn 0.0000 -1.0000 0.0000
usemtl DoorFrame
s off
f 261/787/34 262/788/34 264/789/34 263/790/34
f 263/791/35 264/792/35 268/793/35 267/794/35
f 267/794/36 268/793/36 266/795/36 265/796/36
f 265/797/37 266/798/37 262/788/37 261/787/37
f 263/799/38 267/800/38 265/801/38 261/802/38
o Cube.003_Cube.004
v 4.731461 -0.273586 1.138112
v 4.731461 1.903387 1.138112
v 4.731461 -0.273586 1.072915
v 4.731461 1.903387 1.072915
v 4.796658 -0.273586 1.138112
v 4.796658 1.903387 1.138112
v 4.796658 -0.273586 1.072915
v 4.796658 1.903387 1.072915
vt -0.712114 0.658219
vt 1.532487 0.658219
vt 1.532487 0.590997
vt -0.712114 0.590997
vt -0.712114 0.658219
vt 1.532487 0.658219
vt 1.532487 0.590997
vt -0.712114 0.590997
vt 1.532487 0.658219
vt -0.712114 0.658219
vt -0.712114 0.590997
vt 1.532487 0.590997
vt 0.219337 0.658219
vt 0.219337 0.590997
vt 0.152115 0.590997
vt 0.152115 0.658219
vn -1.0000 0.0000 0.0000
vn 0.0000 0.0000 -1.0000
vn 1.0000 0.0000 0.0000
vn 0.0000 0.0000 1.0000
vn 0.0000 -1.0000 0.0000
usemtl DoorFrame
s off
f 269/803/39 270/804/39 272/805/39 271/806/39
f 271/807/40 272/808/40 276/809/40 275/810/40
f 275/810/41 276/809/41 274/811/41 273/812/41
f 273/813/42 274/814/42 270/804/42 269/803/42
f 271/815/43 275/816/43 273/817/43 269/818/43
o Cube.004_Cube.005
v 4.731461 -0.273586 3.004778
v 4.731461 1.903387 3.004778
v 4.731461 -0.273586 2.939581
v 4.731461 1.903387 2.939581
v 4.796658 -0.273586 3.004778
v 4.796658 1.903387 3.004778
v 4.796658 -0.273586 2.939581
v 4.796658 1.903387 2.939581
vt -0.712114 0.658219
vt 1.532487 0.658219
vt 1.532487 0.590997
vt -0.712114 0.590997
vt -0.712114 0.658219
vt 1.532487 0.658219
vt 1.532487 0.590997
vt -0.712114 0.590997
vt 1.532487 0.658219
vt -0.712114 0.658219
vt -0.712114 0.590997
vt 1.532487 0.590997
vt 0.219337 0.658219
vt 0.219337 0.590997
vt 0.152115 0.590997
vt 0.152115 0.658219
vn -1.0000 0.0000 0.0000
vn 0.0000 0.0000 -1.0000
vn 1.0000 0.0000 0.0000
vn 0.0000 0.0000 1.0000
vn 0.0000 -1.0000 0.0000
usemtl DoorFrame
s off
f 277/819/44 278/820/44 280/821/44 279/822/44
f 279/823/45 280/824/45 284/825/45 283/826/45
f 283/826/46 284/825/46 282/827/46 281/828/46
f 281/829/47 282/830/47 278/820/47 277/819/47
f 279/831/48 283/832/48 281/833/48 277/834/48
o Cube.005_Cube.006
v 2.735751 -0.045843 3.127855
v 2.735751 0.173519 3.127855
v 2.735751 -0.045843 -3.127855
v 2.735751 0.173519 -3.127855
v 4.897263 -0.045843 3.127855
v 4.897263 0.173519 3.127855
v 4.897263 -0.045843 -3.127855
v 4.897263 0.173519 -3.127855
v 2.735751 0.027278 3.127855
v 2.735751 0.100399 3.127855
v 2.735751 0.100399 -3.127855
v 2.735751 0.027278 -3.127855
v 4.897263 0.100399 -3.127855
v 4.897263 0.027278 -3.127855
v 4.897263 0.100399 3.127855
v 4.897263 0.027278 3.127855
v 2.775617 0.027278 3.068348
v 2.775617 0.100399 3.068348
v 2.775617 0.100399 -3.068348
v 2.775617 0.027278 -3.068348
v 4.857397 0.100399 -3.068348
v 4.857397 0.027278 -3.068348
v 4.857397 0.100399 3.068348
v 4.857397 0.027278 3.068348
v 2.735751 0.173519 3.127855
v 2.735751 0.173519 -3.127855
v 4.897263 0.173519 3.127855
v 4.897263 0.173519 -3.127855
v 2.735751 0.173519 2.345891
v 2.735751 0.173519 1.563927
v 2.735751 0.173519 0.781964
v 2.735751 0.173519 -0.000000
v 2.735751 0.173519 -0.781964
v 2.735751 0.173519 -1.563928
v 2.735751 0.173519 -2.345891
v 4.897263 0.173519 -2.345891
v 4.897263 0.173519 -1.563927
v 4.897263 0.173519 -0.781964
v 4.897263 0.173519 0.000000
v 4.897263 0.173519 0.781964
v 4.897263 0.173519 1.563928
v 4.897263 0.173519 2.345891
vt 0.195222 1.000000
vt 0.195222 -0.310039
vt 0.804778 -0.310039
vt 0.804778 1.000000
vt 0.195222 1.000000
vt 0.195222 -0.310039
vt 0.804778 -0.310039
vt 0.804778 1.000000
vt 0.195222 1.000000
vt 0.195222 -0.310039
vt 0.804778 -0.310039
vt 0.804778 1.000000
vt 0.195222 1.000000
vt 0.195222 -0.310039
vt 0.804778 -0.310039
vt 0.804778 1.000000
vt 0.195222 1.000000
vt 0.195222 -0.310039
vt 0.804778 -0.310039
vt 0.804778 1.000000
vt 0.195222 1.000000
vt 0.195222 -0.310039
vt 0.804778 -0.310039
vt 0.804778 1.000000
vt 0.195222 1.000000
vt 0.195222 -0.310039
vt 0.804778 -0.310039
vt 0.804778 1.000000
vt 0.195222 1.000000
vt 0.195222 -0.310039
vt 0.804778 -0.310039
vt 0.804778 1.000000
vt -1.986404 0.667970
vt -1.986405 0.499363
vt 2.986405 0.499363
vt 2.986405 0.667970
vt -10.207632 0.667970
vt -10.207633 0.499363
vt 11.207633 0.499363
vt 11.207633 0.667970
vt -1.986404 0.667970
vt -1.986405 0.499363
vt 2.986405 0.499363
vt 2.986405 0.667970
vt -1.986404 0.667970
vt -1.986405 0.499363
vt 2.986405 0.499363
vt 2.986405 0.667970
vt 2.845325 0.696180
vt -1.845318 0.696180
vt -1.845325 0.500683
vt 2.845318 0.500683
vt -10.207632 0.667970
vt -10.207633 0.499363
vt 11.207633 0.499363
vt 11.207633 0.667970
vt -1.986404 0.667970
vt -1.986405 0.499363
vt 2.986405 0.499363
vt 2.986405 0.667970
vt 3.917775 0.699494
vt -2.917766 0.699494
vt -2.917775 0.467839
vt 3.917766 0.467839
vt -10.122073 0.707155
vt 11.072828 0.707155
vt 11.072859 0.509394
vt -10.122044 0.509394
vt -1.917503 0.904205
vt -1.917503 0.735598
vt 3.055307 0.735598
vt 3.055307 0.904205
vt -10.207632 0.879597
vt -10.207633 0.710990
vt 11.207633 0.710990
vt 11.207633 0.879597
vt -1.986404 0.416970
vt -1.986405 0.248363
vt 2.986405 0.248363
vt 2.986405 0.416970
vt -10.122073 0.707155
vt 11.072828 0.707155
vt 11.072859 0.509394
vt -10.122044 0.509394
vt 3.917775 0.699494
vt -2.917766 0.699494
vt -2.917775 0.467839
vt 3.917766 0.467839
vt 2.845325 0.696180
vt -1.845318 0.696180
vt -1.845325 0.500683
vt 2.845318 0.500683
vn 0.0000 1.0000 0.0000
vn 0.0000 0.0000 -1.0000
vn 1.0000 0.0000 0.0000
vn 0.0000 0.0000 1.0000
vn -0.0000 -1.0000 0.0000
usemtl terrace
s off
f 326/835/49 313/836/49 309/837/49 311/838/49
f 312/839/49 310/840/49 319/841/49 320/842/49
f 320/843/49 319/844/49 318/845/49 321/846/49
f 321/847/49 318/848/49 317/849/49 322/850/49
f 322/851/49 317/852/49 316/853/49 323/854/49
f 323/855/49 316/856/49 315/857/49 324/858/49
f 324/859/49 315/860/49 314/861/49 325/862/49
f 325/863/49 314/864/49 313/865/49 326/866/49
usemtl RoofHangs
f 295/867/50 288/868/50 292/869/50 297/870/50
f 297/871/51 292/872/51 290/873/51 299/874/51
f 299/875/52 290/876/52 286/877/52 294/878/52
f 289/879/52 300/880/52 293/881/52 285/882/52
f 298/883/49 296/884/49 304/885/49 306/886/49
f 291/887/51 298/888/51 300/889/51 289/890/51
f 287/891/50 296/892/50 298/893/50 291/894/50
f 299/895/53 294/896/53 302/897/53 307/898/53
f 297/899/53 299/900/53 307/901/53 305/902/53
f 308/903/52 307/904/52 302/905/52 301/906/52
f 306/907/51 305/908/51 307/909/51 308/910/51
f 304/911/50 303/912/50 305/913/50 306/914/50
f 300/915/49 298/916/49 306/917/49 308/918/49
f 293/919/49 300/920/49 308/921/49 301/922/49
f 295/923/53 297/924/53 305/925/53 303/926/53
o Cube.006_Cube.007
v 3.236893 -0.017903 4.110171
v 3.236893 0.013780 4.115045
v 3.236893 0.135804 3.110977
v 3.236893 0.167487 3.115851
v 4.415017 -0.017903 4.110171
v 4.415017 0.013780 4.115045
v 4.415017 0.135804 3.110977
v 4.415017 0.167487 3.115851
vt 0.617129 0.000000
vt 0.599420 0.000000
vt 0.599420 1.000000
vt 0.617129 1.000000
vt 0.617129 0.000000
vt 0.599420 0.000000
vt 0.599420 1.000000
vt 0.617129 1.000000
vt 0.617129 0.000000
vt 0.599420 0.000000
vt 0.599420 1.000000
vt 0.617129 1.000000
vt 0.617129 0.000000
vt 0.599420 0.000000
vt 0.599420 1.000000
vt 0.617129 1.000000
vt 0.097661 0.000000
vt 0.902339 0.000000
vt 0.902339 1.000000
vt 0.097661 1.000000
vn -1.0000 -0.0000 0.0000
vn 0.0000 0.1520 -0.9884
vn 1.0000 -0.0000 0.0000
vn 0.0000 -0.1520 0.9884
vn 0.0000 0.9884 0.1520
usemtl terrace
s off
f 327/927/54 328/928/54 330/929/54 329/930/54
f 329/931/55 330/932/55 334/933/55 333/934/55
f 333/935/56 334/936/56 332/937/56 331/938/56
f 331/939/57 332/940/57 328/941/57 327/942/57
f 334/943/58 330/944/58 328/945/58 332/946/58
o Cylinder
v 1.034503 2.846244 -0.672602
v 1.064237 2.846244 -0.666688
v 1.089443 2.846244 -0.649845
v 1.076174 3.128721 -0.636575
v 1.106286 2.846244 -0.624639
v 1.088948 3.128721 -0.617457
v 1.112200 2.846244 -0.594905
v 1.093434 3.128721 -0.594905
v 1.106286 2.846244 -0.565172
v 1.089443 2.846244 -0.539966
v 1.076174 3.128721 -0.553236
v 1.064237 2.846244 -0.523123
v 1.057055 3.128721 -0.540461
v 1.034503 2.846244 -0.517209
v 1.004770 2.846244 -0.523123
v 1.011952 3.128721 -0.540461
v 0.979564 2.846244 -0.539966
v 0.992834 3.128721 -0.553236
v 0.962721 2.846244 -0.565172
v 0.980059 3.128721 -0.572354
v 0.956807 2.846244 -0.594905
v 0.975573 3.128721 -0.594905
v 0.962721 2.846244 -0.624639
v 0.980059 3.128721 -0.617457
v 0.979564 2.846244 -0.649845
v 1.004770 2.846244 -0.666688
v 1.011952 3.128721 -0.649350
v 1.034503 3.128721 -0.672602
v 1.089443 3.128721 -0.649845
v 1.106286 3.128721 -0.624639
v 1.106286 3.128721 -0.565172
v 1.089443 3.128721 -0.539966
v 1.064237 3.128721 -0.523123
v 0.979564 3.128721 -0.539966
v 0.956807 3.128721 -0.594905
v 0.962721 3.128721 -0.624639
v 0.979564 3.128721 -0.649845
v 1.004770 3.128721 -0.666688
v 1.076174 3.562588 -0.636575
v 1.088948 3.562588 -0.617457
v 1.093434 3.562588 -0.594905
v 1.088948 3.562588 -0.572354
v 1.057055 3.562588 -0.540461
v 0.992834 3.562588 -0.636575
v 1.011952 3.562588 -0.649350
v 1.034503 3.562588 -0.669607
v 1.103518 3.562588 -0.623492
v 1.103518 3.562588 -0.566319
v 1.087325 3.562588 -0.542084
v 1.034503 3.562588 -0.520204
v 0.981682 3.562588 -0.542084
v 0.965489 3.562588 -0.566319
v 0.959802 3.562588 -0.594905
v 0.981682 3.562588 -0.647727
v 1.063090 3.721304 -0.663921
v 1.034503 3.721304 -0.669607
v 1.087325 3.721304 -0.647727
v 1.103518 3.721304 -0.623492
v 1.109205 3.721304 -0.594905
v 1.103518 3.721304 -0.566319
v 1.087325 3.721304 -0.542084
v 1.063090 3.721304 -0.525891
v 0.965489 3.721304 -0.566319
v 0.960756 3.567476 -0.590112
v 1.108251 3.716416 -0.590112
v 0.964535 3.567476 -0.618699
v 0.960756 3.567476 -0.599699
v 0.964535 3.716416 -0.618699
v 1.090041 3.567476 -0.546148
v 1.100803 3.567476 -0.562254
v 0.978966 3.716416 -0.643663
v 0.985746 3.716416 -0.650443
v 1.058297 3.567476 -0.664874
v 1.010710 3.567476 -0.664874
v 1.029710 3.716416 -0.521158
v 1.010710 3.716416 -0.524937
v 1.083261 3.567476 -0.650443
v 1.067155 3.567476 -0.661205
v 1.090041 3.716416 -0.643663
v 0.978966 3.716416 -0.546148
v 1.104472 3.567476 -0.618699
v 1.108251 3.716416 -0.599699
v 0.968747 3.567476 -0.591701
v 1.100260 3.567476 -0.591701
v 0.972526 3.567476 -0.617109
v 1.094028 3.567476 -0.566781
v 0.974979 3.567476 -0.623030
v 1.037708 3.567476 -0.660662
v 1.037708 3.716416 -0.660662
v 1.056707 3.716416 -0.656883
v 1.031299 3.567476 -0.529149
v 1.078735 3.716416 -0.643668
v 1.006379 3.716416 -0.535381
v 0.990273 3.716416 -0.546143
v 1.083266 3.716416 -0.639136
v 0.974979 3.567476 -0.566781
v 0.974979 3.716416 -0.566781
v 1.096481 3.567476 -0.617109
v 1.096481 3.716416 -0.617109
v 1.064237 3.128721 -0.666688
v 1.112200 3.128721 -0.594905
v 1.034503 3.128721 -0.517209
v 1.004770 3.128721 -0.523123
v 0.962721 3.128721 -0.565172
v 1.057055 3.128721 -0.649350
v 1.034503 3.128721 -0.653836
v 1.088948 3.128721 -0.572354
v 1.034503 3.128721 -0.535975
v 0.992833 3.128721 -0.636575
v 1.057055 3.562588 -0.649350
v 1.034504 3.562588 -0.653836
v 1.076174 3.562588 -0.553236
v 1.034504 3.562588 -0.535975
v 1.011952 3.562588 -0.540461
v 0.992834 3.562588 -0.553236
v 0.980059 3.562588 -0.572354
v 0.975573 3.562588 -0.594905
v 0.980059 3.562588 -0.617457
v 1.063090 3.562588 -0.663921
v 1.087325 3.562588 -0.647727
v 1.109205 3.562588 -0.594905
v 1.063090 3.562588 -0.525891
v 1.005917 3.562588 -0.525891
v 0.965489 3.562588 -0.623492
v 1.005917 3.562588 -0.663921
v 1.034503 3.721304 -0.520204
v 1.005917 3.721304 -0.525891
v 0.981682 3.721304 -0.542084
v 0.959802 3.721304 -0.594905
v 0.965489 3.721304 -0.623492
v 0.981682 3.721304 -0.647727
v 1.005917 3.721304 -0.663921
v 0.964535 3.567476 -0.571112
v 0.960756 3.716416 -0.590112
v 0.964535 3.716416 -0.571112
v 1.104472 3.567476 -0.571112
v 1.108251 3.567476 -0.590112
v 1.104472 3.716416 -0.571112
v 0.960756 3.716416 -0.599699
v 1.090041 3.716416 -0.546148
v 1.100803 3.716416 -0.562254
v 0.978966 3.567476 -0.643663
v 0.968204 3.567476 -0.627557
v 0.968204 3.716416 -0.627557
v 1.067155 3.567476 -0.528606
v 1.083261 3.567476 -0.539368
v 1.067155 3.716416 -0.528606
v 1.083261 3.716416 -0.539368
v 1.001853 3.567476 -0.661205
v 0.985746 3.567476 -0.650443
v 1.001853 3.716416 -0.661205
v 1.039297 3.567476 -0.521158
v 1.058297 3.567476 -0.524937
v 1.039297 3.716416 -0.521158
v 1.058297 3.716416 -0.524937
v 1.039297 3.567476 -0.668653
v 1.058297 3.716416 -0.664874
v 1.039297 3.716416 -0.668653
v 1.029710 3.567476 -0.668653
v 1.029710 3.716416 -0.668653
v 1.010710 3.716416 -0.664874
v 1.010710 3.567476 -0.524937
v 1.029710 3.567476 -0.521158
v 1.083261 3.716416 -0.650443
v 1.067155 3.716416 -0.661205
v 0.985746 3.567476 -0.539368
v 1.001853 3.567476 -0.528606
v 0.985746 3.716416 -0.539368
v 1.001853 3.716416 -0.528606
v 1.100803 3.567476 -0.627557
v 1.090041 3.567476 -0.643663
v 1.100803 3.716416 -0.627557
v 0.968204 3.567476 -0.562254
v 0.978966 3.567476 -0.546148
v 0.968204 3.716416 -0.562254
v 1.108251 3.567476 -0.599699
v 1.104472 3.716416 -0.618699
v 0.972526 3.567476 -0.572702
v 0.972526 3.716416 -0.572702
v 0.968747 3.716416 -0.591701
v 1.096481 3.567476 -0.572702
v 1.100260 3.716416 -0.591701
v 1.096481 3.716416 -0.572702
v 0.968747 3.567476 -0.598110
v 0.968747 3.716416 -0.598110
v 0.972526 3.716416 -0.617109
v 1.083266 3.567476 -0.550674
v 1.094028 3.716416 -0.566781
v 1.083266 3.716416 -0.550674
v 0.985741 3.567476 -0.639136
v 0.974979 3.716416 -0.623030
v 0.985741 3.716416 -0.639136
v 1.078735 3.567476 -0.546143
v 1.062628 3.567476 -0.535381
v 1.078735 3.716416 -0.546143
v 1.062628 3.716416 -0.535381
v 0.990272 3.567476 -0.643668
v 1.006379 3.567476 -0.654430
v 0.990272 3.716416 -0.643668
v 1.006379 3.716416 -0.654430
v 1.056707 3.567476 -0.532928
v 1.037708 3.567476 -0.529149
v 1.056707 3.716416 -0.532928
v 1.037708 3.716416 -0.529149
v 1.056707 3.567476 -0.656883
v 1.012300 3.567476 -0.656883
v 1.031299 3.567476 -0.660662
v 1.012300 3.716416 -0.656883
v 1.031299 3.716416 -0.660662
v 1.012300 3.567476 -0.532928
v 1.031299 3.716416 -0.529149
v 1.012300 3.716416 -0.532928
v 1.062628 3.567476 -0.654430
v 1.078735 3.567476 -0.643668
v 1.062628 3.716416 -0.654430
v 1.006379 3.567476 -0.535381
v 0.990273 3.567476 -0.546143
v 1.083266 3.567476 -0.639136
v 1.094028 3.567476 -0.623030
v 1.094028 3.716416 -0.623030
v 0.985741 3.567476 -0.550674
v 0.985741 3.716416 -0.550674
v 1.100260 3.567476 -0.598110
v 1.100260 3.716416 -0.598110
v 1.004770 3.128721 -0.523123
v 1.034503 3.128721 -0.517209
v 1.057055 3.128721 -0.649350
v 1.034503 3.128721 -0.653836
v 0.992833 3.128721 -0.636575
v 0.980059 3.128721 -0.617457
v 1.057055 3.562588 -0.649350
v 1.034504 3.562588 -0.653836
v 1.011952 3.562588 -0.540461
v 1.034504 3.562588 -0.535975
v 0.992834 3.562588 -0.553236
v 0.980059 3.562588 -0.572354
v 0.975573 3.562588 -0.594905
v 0.980059 3.562588 -0.617457
v 1.087325 3.562588 -0.647727
v 1.063090 3.562588 -0.663921
v 1.005917 3.721304 -0.525891
v 1.034503 3.721304 -0.520204
v 0.981682 3.721304 -0.542084
v 0.965489 3.721304 -0.623492
v 0.959802 3.721304 -0.594905
v 0.981682 3.721304 -0.647727
v 1.005917 3.721304 -0.663921
v 0.960756 3.716416 -0.590112
v 0.960756 3.716416 -0.590112
v 0.964535 3.716416 -0.571112
v 0.964535 3.716416 -0.571112
v 1.104472 3.567476 -0.571112
v 1.104472 3.567476 -0.571112
v 1.108251 3.567476 -0.590112
v 1.108251 3.567476 -0.590112
v 1.010710 3.567476 -0.524937
v 1.010710 3.567476 -0.524937
v 1.029710 3.567476 -0.521158
v 1.029710 3.567476 -0.521158
v 0.968204 3.567476 -0.562254
v 0.968204 3.567476 -0.562254
v 0.978966 3.567476 -0.546148
v 0.978966 3.567476 -0.546148
v 0.964535 3.567476 -0.571112
v 0.964535 3.567476 -0.571112
v 0.972526 3.567476 -0.572702
v 0.972526 3.567476 -0.572702
v 1.104472 3.716416 -0.571112
v 1.104472 3.716416 -0.571112
v 1.096481 3.716416 -0.572702
v 1.096481 3.716416 -0.572702
v 1.083266 3.716416 -0.550674
v 1.083266 3.716416 -0.550674
v 1.094028 3.716416 -0.566781
v 1.094028 3.716416 -0.566781
v 0.985741 3.716416 -0.639136
v 0.985741 3.716416 -0.639136
v 0.974979 3.716416 -0.623030
v 0.974979 3.716416 -0.623030
v 0.985741 3.567476 -0.639136
v 0.985741 3.567476 -0.639136
v 0.978966 3.567476 -0.643663
v 0.978966 3.567476 -0.643663
v 1.062628 3.567476 -0.535381
v 1.062628 3.567476 -0.535381
v 1.067155 3.567476 -0.528606
v 1.067155 3.567476 -0.528606
v 0.990272 3.567476 -0.643668
v 0.990272 3.567476 -0.643668
v 1.006379 3.567476 -0.654430
v 1.006379 3.567476 -0.654430
v 0.990272 3.716416 -0.643668
v 0.990272 3.716416 -0.643668
v 1.001853 3.716416 -0.661205
v 1.001853 3.716416 -0.661205
v 1.006379 3.716416 -0.654430
v 1.006379 3.716416 -0.654430
v 1.056707 3.567476 -0.532928
v 1.056707 3.567476 -0.532928
v 1.037708 3.567476 -0.529149
v 1.037708 3.567476 -0.529149
v 1.058297 3.716416 -0.524937
v 1.058297 3.716416 -0.524937
v 1.056707 3.716416 -0.532928
v 1.056707 3.716416 -0.532928
v 1.012300 3.716416 -0.656883
v 1.012300 3.716416 -0.656883
v 1.012300 3.567476 -0.656883
v 1.012300 3.567476 -0.656883
v 1.031299 3.567476 -0.660662
v 1.031299 3.567476 -0.660662
v 1.029710 3.567476 -0.668653
v 1.029710 3.567476 -0.668653
v 1.029710 3.716416 -0.668653
v 1.029710 3.716416 -0.668653
v 1.031299 3.716416 -0.660662
v 1.031299 3.716416 -0.660662
v 1.012300 3.716416 -0.532928
v 1.012300 3.716416 -0.532928
v 1.031299 3.716416 -0.529149
v 1.031299 3.716416 -0.529149
v 1.012300 3.567476 -0.532928
v 1.012300 3.567476 -0.532928
v 1.006379 3.567476 -0.535381
v 1.006379 3.567476 -0.535381
v 0.990273 3.567476 -0.546143
v 0.990273 3.567476 -0.546143
v 1.083266 3.567476 -0.639136
v 1.083266 3.567476 -0.639136
v 1.094028 3.567476 -0.623030
v 1.094028 3.567476 -0.623030
v 1.094028 3.716416 -0.623030
v 1.094028 3.716416 -0.623030
v 1.034503 3.128721 -0.672602
v 1.004770 3.128721 -0.666688
v 1.106286 3.128721 -0.624639
v 1.089443 3.128721 -0.649845
v 1.089443 3.128721 -0.539966
v 1.106286 3.128721 -0.565172
v 1.064237 3.128721 -0.523123
v 0.962721 3.128721 -0.624639
v 0.956807 3.128721 -0.594905
v 0.979564 3.128721 -0.649845
v 1.088948 3.128721 -0.617457
v 1.076174 3.128721 -0.636575
v 1.093434 3.128721 -0.594905
v 1.057055 3.128721 -0.540461
v 1.076174 3.128721 -0.553236
v 0.992834 3.128721 -0.553236
v 1.011952 3.128721 -0.540461
v 0.980059 3.128721 -0.572354
v 0.975573 3.128721 -0.594905
v 1.088948 3.562588 -0.617457
v 1.076174 3.562588 -0.636575
v 1.093434 3.562588 -0.594905
v 1.088948 3.562588 -0.572354
v 0.992834 3.562588 -0.636575
v 1.087325 3.562588 -0.542084
v 1.103518 3.562588 -0.566319
v 0.965489 3.562588 -0.566319
v 0.981682 3.562588 -0.542084
v 0.959802 3.562588 -0.594905
v 1.063090 3.721304 -0.663921
v 1.034503 3.721304 -0.669607
v 1.087325 3.721304 -0.647727
v 1.103518 3.721304 -0.623492
v 1.109205 3.721304 -0.594905
v 1.103518 3.721304 -0.566319
v 1.087325 3.721304 -0.542084
v 1.063090 3.721304 -0.525891
v 0.968747 3.567476 -0.591701
v 0.968747 3.567476 -0.591701
v 0.960756 3.567476 -0.590112
v 0.960756 3.567476 -0.590112
v 1.108251 3.716416 -0.590112
v 1.108251 3.716416 -0.590112
v 0.964535 3.716416 -0.618699
v 0.964535 3.716416 -0.618699
v 0.964535 3.567476 -0.618699
v 0.964535 3.567476 -0.618699
v 0.972526 3.567476 -0.617109
v 0.972526 3.567476 -0.617109
v 1.100803 3.567476 -0.562254
v 1.100803 3.567476 -0.562254
v 1.094028 3.567476 -0.566781
v 1.094028 3.567476 -0.566781
v 0.968204 3.567476 -0.627557
v 0.968204 3.567476 -0.627557
v 1.001853 3.567476 -0.661205
v 1.001853 3.567476 -0.661205
v 0.985746 3.567476 -0.650443
v 0.985746 3.567476 -0.650443
v 0.985746 3.716416 -0.650443
v 0.985746 3.716416 -0.650443
v 1.039297 3.567476 -0.521158
v 1.039297 3.567476 -0.521158
v 1.058297 3.567476 -0.524937
v 1.058297 3.567476 -0.524937
v 1.090041 3.716416 -0.643663
v 1.090041 3.716416 -0.643663
v 1.083266 3.716416 -0.639136
v 1.083266 3.716416 -0.639136
v 0.968204 3.716416 -0.562254
v 0.968204 3.716416 -0.562254
v 0.978966 3.716416 -0.546148
v 0.978966 3.716416 -0.546148
v 1.104472 3.567476 -0.618699
v 1.104472 3.567476 -0.618699
v 1.096481 3.567476 -0.617109
v 1.096481 3.567476 -0.617109
v 1.078735 3.567476 -0.546143
v 1.078735 3.567476 -0.546143
v 1.062628 3.567476 -0.654430
v 1.062628 3.567476 -0.654430
v 1.078735 3.567476 -0.643668
v 1.078735 3.567476 -0.643668
v 0.974979 3.567476 -0.566781
v 0.974979 3.567476 -0.566781
v 0.974979 3.716416 -0.566781
v 0.974979 3.716416 -0.566781
v 1.100260 3.716416 -0.598110
v 1.100260 3.716416 -0.598110
v 1.096481 3.716416 -0.617109
v 1.096481 3.716416 -0.617109
v 1.064237 3.128721 -0.666688
v 1.112200 3.128721 -0.594905
v 0.979564 3.128721 -0.539966
v 0.962721 3.128721 -0.565172
v 1.088948 3.128721 -0.572354
v 1.034503 3.128721 -0.535975
v 1.011952 3.128721 -0.649350
v 1.076174 3.562588 -0.553236
v 1.057055 3.562588 -0.540461
v 1.011952 3.562588 -0.649350
v 1.034503 3.562588 -0.669607
v 1.103518 3.562588 -0.623492
v 1.109205 3.562588 -0.594905
v 1.063090 3.562588 -0.525891
v 1.034503 3.562588 -0.520204
v 1.005917 3.562588 -0.525891
v 0.965489 3.562588 -0.623492
v 0.981682 3.562588 -0.647727
v 1.005917 3.562588 -0.663921
v 0.965489 3.721304 -0.566319
v 0.960756 3.567476 -0.599699
v 0.960756 3.567476 -0.599699
v 0.960756 3.716416 -0.599699
v 0.960756 3.716416 -0.599699
v 1.090041 3.567476 -0.546148
v 1.090041 3.567476 -0.546148
v 1.090041 3.716416 -0.546148
v 1.090041 3.716416 -0.546148
v 1.100803 3.716416 -0.562254
v 1.100803 3.716416 -0.562254
v 0.978966 3.716416 -0.643663
v 0.978966 3.716416 -0.643663
v 0.968204 3.716416 -0.627557
v 0.968204 3.716416 -0.627557
v 1.083261 3.567476 -0.539368
v 1.083261 3.567476 -0.539368
v 1.067155 3.716416 -0.528606
v 1.067155 3.716416 -0.528606
v 1.083261 3.716416 -0.539368
v 1.083261 3.716416 -0.539368
v 1.039297 3.716416 -0.521158
v 1.039297 3.716416 -0.521158
v 1.058297 3.567476 -0.664874
v 1.058297 3.567476 -0.664874
v 1.039297 3.567476 -0.668653
v 1.039297 3.567476 -0.668653
v 1.058297 3.716416 -0.664874
v 1.058297 3.716416 -0.664874
v 1.039297 3.716416 -0.668653
v 1.039297 3.716416 -0.668653
v 1.010710 3.567476 -0.664874
v 1.010710 3.567476 -0.664874
v 1.010710 3.716416 -0.664874
v 1.010710 3.716416 -0.664874
v 1.010710 3.716416 -0.524937
v 1.010710 3.716416 -0.524937
v 1.029710 3.716416 -0.521158
v 1.029710 3.716416 -0.521158
v 1.083261 3.567476 -0.650443
v 1.083261 3.567476 -0.650443
v 1.067155 3.567476 -0.661205
v 1.067155 3.567476 -0.661205
v 1.083261 3.716416 -0.650443
v 1.083261 3.716416 -0.650443
v 1.067155 3.716416 -0.661205
v 1.067155 3.716416 -0.661205
v 0.985746 3.567476 -0.539368
v 0.985746 3.567476 -0.539368
v 1.001853 3.567476 -0.528606
v 1.001853 3.567476 -0.528606
v 0.985746 3.716416 -0.539368
v 0.985746 3.716416 -0.539368
v 1.001853 3.716416 -0.528606
v 1.001853 3.716416 -0.528606
v 1.100803 3.567476 -0.627557
v 1.100803 3.567476 -0.627557
v 1.090041 3.567476 -0.643663
v 1.090041 3.567476 -0.643663
v 1.100803 3.716416 -0.627557
v 1.100803 3.716416 -0.627557
v 1.108251 3.567476 -0.599699
v 1.108251 3.567476 -0.599699
v 1.108251 3.716416 -0.599699
v 1.108251 3.716416 -0.599699
v 1.104472 3.716416 -0.618699
v 1.104472 3.716416 -0.618699
v 0.972526 3.716416 -0.572702
v 0.972526 3.716416 -0.572702
v 0.968747 3.716416 -0.591701
v 0.968747 3.716416 -0.591701
v 1.100260 3.567476 -0.591701
v 1.100260 3.567476 -0.591701
v 1.096481 3.567476 -0.572702
v 1.096481 3.567476 -0.572702
v 1.100260 3.716416 -0.591701
v 1.100260 3.716416 -0.591701
v 0.968747 3.567476 -0.598110
v 0.968747 3.567476 -0.598110
v 0.968747 3.716416 -0.598110
v 0.968747 3.716416 -0.598110
v 0.972526 3.716416 -0.617109
v 0.972526 3.716416 -0.617109
v 1.083266 3.567476 -0.550674
v 1.083266 3.567476 -0.550674
v 0.974979 3.567476 -0.623030
v 0.974979 3.567476 -0.623030
v 1.078735 3.716416 -0.546143
v 1.078735 3.716416 -0.546143
v 1.062628 3.716416 -0.535381
v 1.062628 3.716416 -0.535381
v 1.037708 3.716416 -0.529149
v 1.037708 3.716416 -0.529149
v 1.037708 3.567476 -0.660662
v 1.037708 3.567476 -0.660662
v 1.056707 3.567476 -0.656883
v 1.056707 3.567476 -0.656883
v 1.037708 3.716416 -0.660662
v 1.037708 3.716416 -0.660662
v 1.056707 3.716416 -0.656883
v 1.056707 3.716416 -0.656883
v 1.031299 3.567476 -0.529149
v 1.031299 3.567476 -0.529149
v 1.062628 3.716416 -0.654430
v 1.062628 3.716416 -0.654430
v 1.078735 3.716416 -0.643668
v 1.078735 3.716416 -0.643668
v 1.006379 3.716416 -0.535381
v 1.006379 3.716416 -0.535381
v 0.990273 3.716416 -0.546143
v 0.990273 3.716416 -0.546143
v 0.985741 3.567476 -0.550674
v 0.985741 3.567476 -0.550674
v 0.985741 3.716416 -0.550674
v 0.985741 3.716416 -0.550674
v 1.100260 3.567476 -0.598110
v 1.100260 3.567476 -0.598110
vt 0.482494 0.530661
vt 0.512271 0.530661
vt 0.512271 0.560438
vt 0.482494 0.560438
vt 0.482494 0.530661
vt 0.512271 0.530661
vt 0.512271 0.560438
vt 0.482494 0.560438
vt 0.482494 0.530661
vt 0.512271 0.530661
vt 0.512271 0.560438
vt 0.482494 0.560438
vt 0.482494 0.530661
vt 0.512271 0.530661
vt 0.512271 0.560438
vt 0.482494 0.560438
vt 0.482494 0.530661
vt 0.512271 0.530661
vt 0.512271 0.560438
vt 0.482494 0.560438
vt 0.482494 0.530661
vt 0.512271 0.530661
vt 0.512271 0.560438
vt 0.482494 0.560438
vt 0.482494 0.530661
vt 0.512271 0.530661
vt 0.512271 0.560438
vt 0.482494 0.560438
vt 0.482494 0.530661
vt 0.512271 0.530661
vt 0.512271 0.560438
vt 0.482494 0.560438
vt 0.482494 0.530661
vt 0.512271 0.530661
vt 0.512271 0.560438
vt 0.482494 0.560438
vt 0.482494 0.530661
vt 0.512271 0.530661
vt 0.512271 0.560438
vt 0.482494 0.560438
vt 0.482494 0.530661
vt 0.512271 0.530661
vt 0.512271 0.560438
vt 0.482494 0.560438
vt 0.482494 0.530661
vt 0.512271 0.530661
vt 0.512271 0.560438
vt 0.482494 0.560438
vt 0.482494 0.530661
vt 0.512271 0.530661
vt 0.512271 0.560438
vt 0.482494 0.560438
vt 0.482494 0.530661
vt 0.512271 0.530661
vt 0.512271 0.560438
vt 0.482494 0.560438
vt 0.483196 0.487630
vt 0.512972 0.487630
vt 0.512972 0.517406
vt 0.483196 0.517406
vt 0.482494 0.530661
vt 0.512271 0.530661
vt 0.512271 0.560438
vt 0.482494 0.560438
vt 0.482494 0.530661
vt 0.512271 0.530661
vt 0.512271 0.560438
vt 0.482494 0.560438
vt 0.483196 0.487630
vt 0.512972 0.487630
vt 0.512972 0.517406
vt 0.483196 0.517406
vt 0.483196 0.487630
vt 0.512972 0.487630
vt 0.512972 0.517406
vt 0.483196 0.517406
vt 0.483196 0.487630
vt 0.512972 0.487630
vt 0.512972 0.517406
vt 0.483196 0.517406
vt 0.483196 0.487630
vt 0.512972 0.487630
vt 0.512972 0.517406
vt 0.483196 0.517406
vt 0.483196 0.487630
vt 0.512972 0.487630
vt 0.512972 0.517406
vt 0.483196 0.517406
vt 0.483196 0.487630
vt 0.512972 0.487630
vt 0.512972 0.517406
vt 0.483196 0.517406
vt 0.483196 0.487630
vt 0.512972 0.487630
vt 0.512972 0.517406
vt 0.483196 0.517406
vt 0.483196 0.487630
vt 0.512972 0.487630
vt 0.512972 0.517406
vt 0.483196 0.517406
vt 0.483196 0.487630
vt 0.512972 0.487630
vt 0.512972 0.517406
vt 0.483196 0.517406
vt 0.483196 0.487630
vt 0.512972 0.487630
vt 0.512972 0.517406
vt 0.483196 0.517406
vt 0.483196 0.487630
vt 0.512972 0.487630
vt 0.512972 0.517406
vt 0.483196 0.517406
vt 0.483196 0.487630
vt 0.512972 0.487630
vt 0.512972 0.517406
vt 0.483196 0.517406
vt 0.483196 0.487630
vt 0.512972 0.487630
vt 0.512972 0.517406
vt 0.483196 0.517406
vt 0.483196 0.487630
vt 0.512972 0.487630
vt 0.512972 0.517406
vt 0.483196 0.517406
vt 0.483196 0.487630
vt 0.512972 0.487630
vt 0.512972 0.517406
vt 0.483196 0.517406
vt 0.483196 0.487630
vt 0.512972 0.487630
vt 0.512972 0.517406
vt 0.483196 0.517406
vt 0.483196 0.487630
vt 0.483196 0.517406
vt 0.512972 0.517406
vt 0.512972 0.487630
vt 0.483196 0.487630
vt 0.512972 0.487630
vt 0.512972 0.517406
vt 0.483196 0.517406
vt 0.483196 0.487630
vt 0.512972 0.487630
vt 0.512972 0.517406
vt 0.483196 0.517406
vt 0.483196 0.487630
vt 0.512972 0.487630
vt 0.512972 0.517406
vt 0.483196 0.517406
vt 0.483196 0.487630
vt 0.512972 0.487630
vt 0.512972 0.517406
vt 0.483196 0.517406
vt 0.483196 0.487630
vt 0.512972 0.487630
vt 0.512972 0.517406
vt 0.483196 0.517406
vt 0.483196 0.487630
vt 0.512972 0.487630
vt 0.512972 0.517406
vt 0.483196 0.517406
vt 0.483196 0.487630
vt 0.512972 0.487630
vt 0.512972 0.517406
vt 0.483196 0.517406
vt 0.483196 0.487630
vt 0.512972 0.487630
vt 0.512972 0.517406
vt 0.483196 0.517406
vt 0.483196 0.487630
vt 0.512972 0.487630
vt 0.512972 0.517406
vt 0.483196 0.517406
vt 0.483196 0.487630
vt 0.512972 0.487630
vt 0.512972 0.517406
vt 0.483196 0.517406
vt 0.483196 0.487630
vt 0.512972 0.487630
vt 0.512972 0.517406
vt 0.483196 0.517406
vt 0.483196 0.487630
vt 0.512972 0.487630
vt 0.512972 0.517406
vt 0.483196 0.517406
vt 0.483196 0.487630
vt 0.512972 0.487630
vt 0.512972 0.517406
vt 0.483196 0.517406
vt 0.483196 0.487630
vt 0.512972 0.487630
vt 0.512972 0.517406
vt 0.483196 0.517406
vt 0.483196 0.487630
vt 0.512972 0.487630
vt 0.512972 0.517406
vt 0.483196 0.517406
vt 0.483196 0.487630
vt 0.483196 0.517406
vt 0.512972 0.517406
vt 0.512972 0.487630
vt 0.483196 0.487630
vt 0.483196 0.517406
vt 0.512972 0.517406
vt 0.512972 0.487630
vt 0.483196 0.487630
vt 0.483196 0.517406
vt 0.512972 0.517406
vt 0.512972 0.487630
vt 0.483196 0.487630
vt 0.483196 0.517406
vt 0.512972 0.517406
vt 0.512972 0.487630
vt 0.483196 0.487630
vt 0.483196 0.517406
vt 0.512972 0.517406
vt 0.512972 0.487630
vt 0.483196 0.487630
vt 0.483196 0.517406
vt 0.512972 0.517406
vt 0.512972 0.487630
vt 0.483196 0.487630
vt 0.483196 0.517406
vt 0.512972 0.517406
vt 0.512972 0.487630
vt 0.483196 0.487630
vt 0.483196 0.517406
vt 0.512972 0.517406
vt 0.512972 0.487630
vt 0.483196 0.487630
vt 0.483196 0.517406
vt 0.512972 0.517406
vt 0.512972 0.487630
vt 0.483196 0.487630
vt 0.483196 0.517406
vt 0.512972 0.517406
vt 0.512972 0.487630
vt 0.483196 0.487630
vt 0.483196 0.517406
vt 0.512972 0.517406
vt 0.512972 0.487630
vt 0.483196 0.487630
vt 0.483196 0.517406
vt 0.512972 0.517406
vt 0.512972 0.487630
vt 0.483196 0.487630
vt 0.483196 0.517406
vt 0.512972 0.517406
vt 0.512972 0.487630
vt 0.483196 0.487630
vt 0.483196 0.517406
vt 0.512972 0.517406
vt 0.512972 0.487630
vt 0.483196 0.487630
vt 0.483196 0.517406
vt 0.512972 0.517406
vt 0.512972 0.487630
vt 0.483196 0.487630
vt 0.512972 0.487630
vt 0.512972 0.517406
vt 0.483196 0.487630
vt 0.512972 0.487630
vt 0.512972 0.517406
vt 0.483196 0.517406
vt 0.483196 0.487630
vt 0.512972 0.487630
vt 0.512972 0.517406
vt 0.483196 0.517406
vt 0.483196 0.487630
vt 0.512972 0.487630
vt 0.512972 0.517406
vt 0.483196 0.517406
vt 0.483196 0.487630
vt 0.512972 0.487630
vt 0.512972 0.517406
vt 0.483196 0.517406
vt 0.483196 0.487630
vt 0.512972 0.487630
vt 0.512972 0.517406
vt 0.483196 0.517406
vt 0.483196 0.487630
vt 0.512972 0.487630
vt 0.512972 0.517406
vt 0.483196 0.517406
vt 0.483196 0.487630
vt 0.512972 0.487630
vt 0.512972 0.517406
vt 0.483196 0.517406
vt 0.483196 0.487630
vt 0.512972 0.487630
vt 0.512972 0.517406
vt 0.483196 0.517406
vt 0.483196 0.487630
vt 0.512972 0.517406
vt 0.483196 0.517406
vt 0.512972 0.517406
vt 0.483196 0.517406
vt 0.512972 0.487630
vt 0.512972 0.517406
vt 0.483196 0.517406
vt 0.483196 0.487630
vt 0.512972 0.487630
vt 0.512972 0.517406
vt 0.483196 0.517406
vt 0.483196 0.487630
vt 0.512972 0.517406
vt 0.483196 0.517406
vt 0.512972 0.517406
vt 0.483196 0.517406
vt 0.512972 0.487630
vt 0.512972 0.517406
vt 0.483196 0.517406
vt 0.483196 0.487630
vt 0.512972 0.487630
vt 0.512972 0.517406
vt 0.483196 0.517406
vt 0.483196 0.487630
vt 0.512972 0.517406
vt 0.483196 0.517406
vt 0.512972 0.517406
vt 0.483196 0.517406
vt 0.512972 0.487630
vt 0.512972 0.517406
vt 0.483196 0.517406
vt 0.483196 0.487630
vt 0.512972 0.487630
vt 0.512972 0.517406
vt 0.483196 0.517406
vt 0.483196 0.487630
vt 0.512972 0.517406
vt 0.483196 0.517406
vt 0.512972 0.517406
vt 0.483196 0.517406
vt 0.512972 0.487630
vt 0.512972 0.517406
vt 0.483196 0.517406
vt 0.483196 0.487630
vt 0.512972 0.487630
vt 0.512972 0.517406
vt 0.483196 0.517406
vt 0.483196 0.487630
vt 0.512972 0.517406
vt 0.483196 0.517406
vt 0.512972 0.517406
vt 0.483196 0.517406
vt 0.512972 0.487630
vt 0.512972 0.517406
vt 0.483196 0.517406
vt 0.483196 0.487630
vt 0.512972 0.487630
vt 0.512972 0.517406
vt 0.483196 0.517406
vt 0.483196 0.487630
vt 0.512972 0.517406
vt 0.483196 0.517406
vt 0.512972 0.517406
vt 0.483196 0.517406
vt 0.512972 0.487630
vt 0.512972 0.517406
vt 0.483196 0.517406
vt 0.483196 0.487630
vt 0.512972 0.487630
vt 0.512972 0.517406
vt 0.483196 0.517406
vt 0.483196 0.487630
vt 0.512972 0.487630
vt 0.512972 0.517406
vt 0.483196 0.517406
vt 0.483196 0.487630
vt 0.512972 0.487630
vt 0.512972 0.517406
vt 0.483196 0.517406
vt 0.483196 0.487630
vt 0.512972 0.487630
vt 0.512972 0.517406
vt 0.483196 0.517406
vt 0.483196 0.487630
vt 0.512972 0.487630
vt 0.512972 0.517406
vt 0.483196 0.517406
vt 0.512972 0.517406
vt 0.483196 0.517406
vt 0.512972 0.517406
vt 0.483196 0.517406
vt 0.512972 0.517406
vt 0.483196 0.517406
vt 0.512972 0.517406
vt 0.483196 0.517406
vt 0.483196 0.487630
vt 0.512972 0.517406
vt 0.483196 0.517406
vt 0.512972 0.517406
vt 0.483196 0.517406
vt 0.512972 0.487630
vt 0.512972 0.517406
vt 0.483196 0.517406
vt 0.483196 0.487630
vt 0.512972 0.487630
vt 0.512972 0.517406
vt 0.483196 0.517406
vt 0.483196 0.487630
vt 0.512972 0.517406
vt 0.483196 0.517406
vt 0.512972 0.517406
vt 0.483196 0.517406
vt 0.512972 0.487630
vt 0.512972 0.517406
vt 0.483196 0.517406
vt 0.483196 0.487630
vt 0.512972 0.487630
vt 0.512972 0.517406
vt 0.483196 0.517406
vt 0.483196 0.487630
vt 0.512972 0.517406
vt 0.483196 0.517406
vt 0.512972 0.517406
vt 0.483196 0.517406
vt 0.512972 0.487630
vt 0.512972 0.517406
vt 0.483196 0.517406
vt 0.483196 0.487630
vt 0.512972 0.487630
vt 0.512972 0.517406
vt 0.483196 0.517406
vt 0.483196 0.487630
vt 0.512972 0.517406
vt 0.483196 0.517406
vt 0.512972 0.517406
vt 0.483196 0.517406
vt 0.512972 0.487630
vt 0.512972 0.517406
vt 0.483196 0.517406
vt 0.483196 0.487630
vt 0.512972 0.487630
vt 0.512972 0.517406
vt 0.483196 0.517406
vt 0.512972 0.517406
vt 0.483196 0.517406
vt 0.512972 0.517406
vt 0.483196 0.517406
vt 0.512972 0.517406
vt 0.483196 0.517406
vt 0.512972 0.517406
vt 0.483196 0.517406
vt 0.512972 0.517406
vt 0.483196 0.517406
vt 0.512972 0.517406
vt 0.483196 0.517406
vt 0.512972 0.517406
vt 0.483196 0.517406
vt 0.512972 0.517406
vt 0.483196 0.517406
vt 0.748614 0.230639
vt 0.748614 0.260416
vt 0.778390 0.260416
vt 0.778390 0.230639
vt 0.483196 0.487630
vt 0.512972 0.487630
vt 0.512972 0.517406
vt 0.483196 0.517406
vt 0.483196 0.487630
vt 0.512972 0.487630
vt 0.512972 0.517406
vt 0.483196 0.517406
vt 0.483196 0.487630
vt 0.483196 0.517406
vt 0.512972 0.517406
vt 0.512972 0.487630
vt 0.483196 0.487630
vt 0.483196 0.517406
vt 0.512972 0.517406
vt 0.512972 0.487630
vt 0.748614 0.230639
vt 0.778390 0.230639
vt 0.778390 0.260416
vt 0.748614 0.260416
vt 0.483196 0.487630
vt 0.512972 0.487630
vt 0.512972 0.517406
vt 0.483196 0.517406
vt 0.483196 0.487630
vt 0.512972 0.487630
vt 0.512972 0.517406
vt 0.483196 0.517406
vt 0.483196 0.487630
vt 0.512972 0.487630
vt 0.512972 0.517406
vt 0.483196 0.517406
vt 0.483196 0.487630
vt 0.483196 0.517406
vt 0.512972 0.517406
vt 0.512972 0.487630
vt 0.748614 0.230639
vt 0.778390 0.230639
vt 0.778390 0.260416
vt 0.748614 0.260416
vt 0.483196 0.487630
vt 0.512972 0.487630
vt 0.512972 0.517406
vt 0.483196 0.517406
vt 0.483196 0.487630
vt 0.483196 0.517406
vt 0.512972 0.517406
vt 0.512972 0.487630
vt 0.483196 0.487630
vt 0.483196 0.517406
vt 0.512972 0.517406
vt 0.512972 0.487630
vt 0.483196 0.487630
vt 0.512972 0.487630
vt 0.512972 0.517406
vt 0.483196 0.517406
vt 0.748614 0.230639
vt 0.778390 0.230639
vt 0.778390 0.260416
vt 0.748614 0.260416
vt 0.483196 0.487630
vt 0.483196 0.517406
vt 0.512972 0.517406
vt 0.512972 0.487630
vt 0.483196 0.487630
vt 0.512972 0.487630
vt 0.512972 0.517406
vt 0.483196 0.517406
vt 0.483196 0.487630
vt 0.512972 0.487630
vt 0.512972 0.517406
vt 0.483196 0.517406
vt 0.483196 0.487630
vt 0.512972 0.487630
vt 0.512972 0.517406
vt 0.483196 0.517406
vt 0.748614 0.230639
vt 0.748614 0.260416
vt 0.778390 0.260416
vt 0.778390 0.230639
vt 0.483196 0.487630
vt 0.512972 0.487630
vt 0.512972 0.517406
vt 0.483196 0.517406
vt 0.483196 0.487630
vt 0.512972 0.487630
vt 0.512972 0.517406
vt 0.483196 0.517406
vt 0.483196 0.487630
vt 0.483196 0.517406
vt 0.512972 0.517406
vt 0.512972 0.487630
vt 0.483196 0.487630
vt 0.483196 0.517406
vt 0.512972 0.517406
vt 0.512972 0.487630
vt 0.748614 0.230639
vt 0.778390 0.230639
vt 0.778390 0.260416
vt 0.748614 0.260416
vt 0.483196 0.487630
vt 0.483196 0.517406
vt 0.512972 0.517406
vt 0.512972 0.487630
vt 0.483196 0.487630
vt 0.512972 0.487630
vt 0.512972 0.517406
vt 0.483196 0.517406
vt 0.483196 0.487630
vt 0.512972 0.487630
vt 0.512972 0.517406
vt 0.483196 0.517406
vt 0.483196 0.487630
vt 0.512972 0.487630
vt 0.512972 0.517406
vt 0.483196 0.517406
vt 0.748614 0.230639
vt 0.778390 0.230639
vt 0.778390 0.260416
vt 0.748614 0.260416
vt 0.483196 0.487630
vt 0.512972 0.487630
vt 0.512972 0.517406
vt 0.483196 0.517406
vt 0.483196 0.487630
vt 0.512972 0.487630
vt 0.512972 0.517406
vt 0.483196 0.517406
vt 0.483196 0.487630
vt 0.512972 0.487630
vt 0.512972 0.517406
vt 0.483196 0.517406
vt 0.483196 0.487630
vt 0.483196 0.517406
vt 0.512972 0.517406
vt 0.512972 0.487630
vt 0.748614 0.230639
vt 0.778390 0.230639
vt 0.778390 0.260416
vt 0.748614 0.260416
vt 0.483196 0.487630
vt 0.483196 0.517406
vt 0.512972 0.517406
vt 0.512972 0.487630
vt 0.483196 0.487630
vt 0.483196 0.517406
vt 0.512972 0.517406
vt 0.512972 0.487630
vt 0.483196 0.487630
vt 0.483196 0.517406
vt 0.512972 0.517406
vt 0.512972 0.487630
vt 0.483196 0.487630
vt 0.512972 0.487630
vt 0.512972 0.517406
vt 0.483196 0.517406
vt 0.748614 0.230639
vt 0.778390 0.230639
vt 0.778390 0.260416
vt 0.748614 0.260416
vt 0.483196 0.487630
vt 0.512972 0.487630
vt 0.512972 0.517406
vt 0.483196 0.517406
vt 0.483196 0.487630
vt 0.512972 0.487630
vt 0.512972 0.517406
vt 0.483196 0.517406
vt 0.483196 0.487630
vt 0.512972 0.487630
vt 0.512972 0.517406
vt 0.483196 0.517406
vt 0.483196 0.487630
vt 0.483196 0.517406
vt 0.512972 0.517406
vt 0.512972 0.487630
vt 0.748614 0.230639
vt 0.778390 0.230639
vt 0.778390 0.260416
vt 0.748614 0.260416
vt 0.483196 0.487630
vt 0.512972 0.487630
vt 0.512972 0.517406
vt 0.483196 0.517406
vt 0.483196 0.487630
vt 0.512972 0.487630
vt 0.512972 0.517406
vt 0.483196 0.517406
vt 0.483196 0.487630
vt 0.512972 0.487630
vt 0.512972 0.517406
vt 0.483196 0.517406
vt 0.483196 0.487630
vt 0.483196 0.517406
vt 0.512972 0.517406
vt 0.512972 0.487630
vt 0.748614 0.230639
vt 0.778390 0.230639
vt 0.778390 0.260416
vt 0.748614 0.260416
vt 0.483196 0.487630
vt 0.512972 0.487630
vt 0.512972 0.517406
vt 0.483196 0.517406
vt 0.483196 0.487630
vt 0.512972 0.487630
vt 0.512972 0.517406
vt 0.483196 0.517406
vt 0.483196 0.487630
vt 0.512972 0.487630
vt 0.512972 0.517406
vt 0.483196 0.517406
vt 0.483196 0.487630
vt 0.483196 0.517406
vt 0.512972 0.517406
vt 0.512972 0.487630
vt 0.748614 0.230639
vt 0.778390 0.230639
vt 0.778390 0.260416
vt 0.748614 0.260416
vt 0.483196 0.487630
vt 0.483196 0.517406
vt 0.512972 0.517406
vt 0.512972 0.487630
vt 0.483196 0.487630
vt 0.483196 0.517406
vt 0.512972 0.517406
vt 0.512972 0.487630
vt 0.483196 0.487630
vt 0.483196 0.517406
vt 0.512972 0.517406
vt 0.512972 0.487630
vt 0.483196 0.487630
vt 0.483196 0.517406
vt 0.512972 0.517406
vt 0.512972 0.487630
vt 0.748614 0.230639
vt 0.748614 0.260416
vt 0.778390 0.260416
vt 0.778390 0.230639
vt 0.483196 0.487630
vt 0.512972 0.487630
vt 0.512972 0.517406
vt 0.483196 0.517406
vt 0.483196 0.487630
vt 0.512972 0.487630
vt 0.512972 0.517406
vt 0.483196 0.517406
vt 0.483196 0.487630
vt 0.512972 0.487630
vt 0.512972 0.517406
vt 0.483196 0.517406
vt 0.483196 0.487630
vt 0.483196 0.517406
vt 0.512972 0.517406
vt 0.512972 0.487630
vt 0.748614 0.230639
vt 0.748614 0.260416
vt 0.778390 0.260416
vt 0.778390 0.230639
vt 0.483196 0.487630
vt 0.512972 0.487630
vt 0.512972 0.517406
vt 0.483196 0.517406
vt 0.483196 0.487630
vt 0.483196 0.517406
vt 0.512972 0.517406
vt 0.512972 0.487630
vt 0.483196 0.487630
vt 0.512972 0.487630
vt 0.512972 0.517406
vt 0.483196 0.517406
vt 0.483196 0.487630
vt 0.512972 0.487630
vt 0.512972 0.517406
vt 0.483196 0.517406
vt 0.748614 0.230639
vt 0.778390 0.230639
vt 0.778390 0.260416
vt 0.748614 0.260416
vt 0.483196 0.487630
vt 0.512972 0.487630
vt 0.512972 0.517406
vt 0.483196 0.517406
vt 0.483196 0.487630
vt 0.512972 0.487630
vt 0.512972 0.517406
vt 0.483196 0.517406
vt 0.483196 0.487630
vt 0.512972 0.487630
vt 0.512972 0.517406
vt 0.483196 0.517406
vt 0.483196 0.487630
vt 0.483196 0.517406
vt 0.512972 0.517406
vt 0.512972 0.487630
vt 0.748614 0.230639
vt 0.778390 0.230639
vt 0.778390 0.260416
vt 0.748614 0.260416
vt 0.483196 0.487630
vt 0.483196 0.517406
vt 0.512972 0.517406
vt 0.512972 0.487630
vt 0.483196 0.487630
vt 0.483196 0.517406
vt 0.512972 0.517406
vt 0.512972 0.487630
vt 0.483196 0.487630
vt 0.512972 0.487630
vt 0.512972 0.517406
vt 0.483196 0.517406
vt 0.483196 0.487630
vt 0.512972 0.487630
vt 0.512972 0.517406
vt 0.483196 0.517406
vt 0.483196 0.487630
vt 0.512972 0.487630
vt 0.512972 0.517406
vt 0.483196 0.487630
vt 0.512972 0.487630
vt 0.512972 0.517406
vt 0.483196 0.487630
vt 0.512972 0.487630
vt 0.512972 0.517406
vt 0.483196 0.487630
vt 0.512972 0.487630
vt 0.483196 0.487630
vt 0.512972 0.487630
vt 0.512972 0.517406
vt 0.483196 0.487630
vt 0.512972 0.487630
vt 0.512972 0.517406
vt 0.483196 0.487630
vt 0.512972 0.487630
vt 0.512972 0.517406
vt 0.512972 0.487630
vt 0.512972 0.517406
vt 0.512972 0.487630
vt 0.512972 0.487630
vt 0.512972 0.487630
vt 0.512972 0.487630
vt 0.512972 0.487630
vn -0.0000 0.0000 -1.0000
vn 0.3827 0.0000 -0.9239
vn 0.7071 0.0000 -0.7071
vn 0.9239 0.0000 -0.3827
vn 1.0000 0.0000 0.0000
vn 0.9239 0.0000 0.3827
vn 0.7071 0.0000 0.7071
vn 0.3827 0.0000 0.9239
vn -0.0000 0.0000 1.0000
vn -0.3827 0.0000 0.9239
vn -0.7071 0.0000 0.7071
vn -0.9239 0.0000 0.3827
vn -1.0000 0.0000 0.0000
vn -0.9239 0.0000 -0.3827
vn -0.7071 0.0000 -0.7071
vn -0.3827 0.0000 -0.9239
vn 0.0000 1.0000 0.0000
vn -0.9808 -0.0000 0.1951
vn 0.9808 0.0000 0.1951
vn -0.9808 -0.0000 -0.1951
vn 0.8315 0.0000 0.5556
vn -0.8315 -0.0000 -0.5556
vn 0.5556 0.0000 0.8315
vn -0.5556 -0.0000 -0.8315
vn 0.1951 -0.0000 0.9808
vn 0.1951 0.0000 -0.9808
vn -0.1951 0.0000 -0.9808
vn -0.1951 0.0000 0.9808
vn 0.5556 0.0000 -0.8315
vn -0.5556 0.0000 0.8315
vn 0.8315 0.0000 -0.5556
vn -0.8315 -0.0000 0.5556
vn 0.9808 0.0000 -0.1951
vn 0.0000 -1.0000 0.0000
usemtl Tube
s 1
f 335/947/59 362/948/59 759/949/60 336/950/60
f 336/951/60 759/952/60 671/953/61 337/954/61
f 337/955/61 671/956/61 670/957/62 339/958/62
f 339/959/62 670/960/62 760/961/63 341/962/63
f 341/963/63 760/964/63 365/965/64 343/966/64
f 343/967/64 365/968/64 672/969/65 344/970/65
f 344/971/65 672/972/65 674/973/66 346/974/66
f 346/975/66 674/976/66 560/977/67 348/978/67
f 348/979/67 560/980/67 559/981/68 349/982/68
f 349/983/68 559/984/68 761/985/69 351/986/69
f 351/987/69 761/988/69 762/989/70 353/990/70
f 353/991/70 762/992/70 676/993/71 355/994/71
f 355/995/71 676/996/71 370/997/72 357/998/72
f 357/999/72 370/1000/72 371/1001/73 359/1002/73
f 358/1003/72 686/1004/71 571/1005/71 572/1006/72
f 359/1007/73 371/1008/73 669/1009/74 360/1010/74
f 360/1011/74 669/1012/74 362/1013/59 335/1014/59
f 562/1015/75 561/1016/75 434/1017/75 668/1018/75
f 561/1019/75 679/1020/75 363/1021/75 434/1022/75
f 679/1023/75 678/1024/75 364/1025/75 363/1026/75
f 678/1027/75 680/1028/75 435/1029/75 364/1030/75
f 680/1031/75 763/1032/75 673/1033/75 435/1034/75
f 763/1035/75 345/1036/75 366/1037/75 673/1038/75
f 345/1039/75 681/1040/75 367/1041/75 366/1042/75
f 681/1043/75 764/1044/75 436/1045/75 367/1046/75
f 764/1047/75 350/1048/75 437/1049/75 436/1050/75
f 350/1051/75 352/1052/75 368/1053/75 437/1054/75
f 352/1055/75 354/1056/75 438/1057/75 368/1058/75
f 354/1059/75 356/1060/75 369/1061/75 438/1062/75
f 356/1063/75 564/1064/75 675/1065/75 369/1066/75
f 564/1067/75 563/1068/75 677/1069/75 675/1070/75
f 563/1071/75 765/1072/75 372/1073/75 677/1074/75
f 765/1075/75 562/1076/75 668/1077/75 372/1078/75
f 691/1079/75 776/1080/75 775/1081/75 452/1082/75
f 682/1083/65 441/1084/64 690/1085/64 766/1086/65
f 443/1087/73 358/1088/72 572/1089/72 378/1090/73
f 347/1091/66 682/1092/65 766/1093/65 377/1094/66
f 361/1095/74 443/1096/73 378/1097/73 379/1098/74
f 442/1099/67 347/1100/66 377/1101/66 568/1102/67
f 439/1103/60 440/1104/59 566/1105/59 565/1106/60
f 440/1107/59 361/1108/74 379/1109/74 566/1110/59
f 684/1111/68 442/1112/67 568/1113/67 567/1114/68
f 338/1115/61 439/1116/60 565/1117/60 373/1118/61
f 683/1119/69 684/1120/68 567/1121/68 569/1122/69
f 340/1123/62 338/1124/61 373/1125/61 687/1126/62
f 685/1127/70 683/1128/69 569/1129/69 570/1130/70
f 342/1131/63 340/1132/62 687/1133/62 375/1134/63
f 686/1135/71 685/1136/70 570/1137/70 571/1138/71
f 441/1139/64 342/1140/63 375/1141/63 690/1142/64
f 767/1143/75 772/1144/75 383/1145/75 446/1146/75
f 768/1147/75 777/1148/75 776/1149/75 691/1150/75
f 447/1151/75 384/1152/75 772/1153/75 767/1154/75
f 444/1155/75 574/1156/75 380/1157/75 445/1158/75
f 445/1159/75 380/1160/75 777/1161/75 768/1162/75
f 448/1163/75 774/1164/75 384/1165/75 447/1166/75
f 688/1167/75 573/1168/75 574/1169/75 444/1170/75
f 449/1171/75 385/1172/75 774/1173/75 448/1174/75
f 374/1175/75 381/1176/75 573/1177/75 688/1178/75
f 450/1179/75 386/1180/75 385/1181/75 449/1182/75
f 689/1183/75 771/1184/75 381/1185/75 374/1186/75
f 451/1187/75 696/1188/75 386/1189/75 450/1190/75
f 376/1191/75 382/1192/75 771/1193/75 689/1194/75
f 452/1195/75 775/1196/75 696/1197/75 451/1198/75
f 446/1199/75 383/1200/75 382/1201/75 376/1202/75
f 393/1203/75 391/1204/75 462/1205/75
f 387/1206/71 694/1207/70 599/1208/76 708/1209/76
f 694/1210/70 778/1211/70 584/1212/76 599/1213/76
f 778/1214/70 579/1215/71 582/1216/76 584/1217/76
f 579/1218/71 387/1219/71 708/1220/76 582/1221/76
f 693/1222/64 455/1223/63 588/1224/77 586/1225/77
f 455/1226/63 701/1227/63 709/1228/77 588/1229/77
f 701/1230/63 702/1231/64 603/1232/77 709/1233/77
f 702/1234/64 693/1235/64 586/1236/77 603/1237/77
f 458/1238/72 387/1219/71 779/1239/78 713/1240/78
f 387/1206/71 579/1215/71 781/1241/78 779/1242/78
f 579/1218/71 578/1243/72 711/1244/78 781/1245/78
f 578/1246/72 458/1247/72 713/1248/78 711/1249/78
f 692/1250/65 693/1235/64 718/1251/79 783/1252/79
f 693/1222/64 702/1231/64 787/1253/79 718/1254/79
f 702/1234/64 703/1255/65 785/1256/79 787/1257/79
f 703/1258/65 692/1259/65 783/1260/79 785/1261/79
f 388/1262/73 458/1247/72 721/1263/80 617/1264/80
f 458/1238/72 578/1243/72 791/1265/80 721/1266/80
f 578/1246/72 580/1267/73 789/1268/80 791/1269/80
f 580/1270/73 388/1271/73 617/1272/80 789/1273/80
f 456/1274/66 692/1259/65 793/1275/81 621/1276/81
f 692/1250/65 703/1255/65 797/1277/81 793/1278/81
f 703/1258/65 704/1279/66 795/1280/81 797/1281/81
f 704/1282/66 456/1283/66 621/1284/81 795/1285/81
f 459/1286/74 388/1271/73 725/1287/82 723/1288/82
f 388/1262/73 580/1267/73 727/1289/82 725/1290/82
f 580/1270/73 581/1291/74 629/1292/82 727/1293/82
f 581/1294/74 459/1295/74 723/1296/82 629/1297/82
f 773/1298/67 456/1283/66 731/1299/83 729/1300/83
f 456/1274/66 704/1279/66 637/1301/83 731/1302/83
f 704/1282/66 576/1303/67 799/1304/83 637/1305/83
f 576/1306/67 773/1307/67 729/1308/83 799/1309/83
f 453/1310/60 769/1311/59 803/1312/84 801/1313/84
f 769/1314/59 698/1315/59 807/1316/84 803/1317/84
f 698/1318/59 697/1319/60 805/1320/84 807/1321/84
f 697/1322/60 453/1323/60 801/1324/84 805/1325/84
f 769/1314/59 459/1295/74 809/1326/85 647/1327/85
f 459/1286/74 581/1291/74 811/1328/85 809/1329/85
f 581/1294/74 698/1315/59 649/1330/85 811/1331/85
f 698/1318/59 769/1311/59 647/1332/85 649/1333/85
f 457/1334/68 773/1307/67 592/1335/86 590/1336/86
f 773/1298/67 576/1303/67 815/1337/86 592/1338/86
f 576/1306/67 575/1339/68 813/1340/86 815/1341/86
f 575/1342/68 457/1343/68 590/1344/86 813/1345/86
f 454/1346/61 453/1323/60 819/1347/87 817/1348/87
f 453/1310/60 697/1319/60 823/1349/87 819/1350/87
f 697/1322/60 699/1351/61 821/1352/87 823/1353/87
f 699/1354/61 454/1355/61 817/1356/87 821/1357/87
f 695/1358/69 457/1343/68 827/1359/88 825/1360/88
f 457/1334/68 575/1339/68 831/1361/88 827/1362/88
f 575/1342/68 577/1363/69 829/1364/88 831/1365/88
f 577/1366/69 695/1367/69 825/1368/88 829/1369/88
f 770/1370/62 454/1355/61 835/1371/89 833/1372/89
f 454/1346/61 699/1351/61 734/1373/89 835/1374/89
f 699/1354/61 700/1375/62 837/1376/89 734/1377/89
f 700/1378/62 770/1379/62 833/1380/89 837/1381/89
f 694/1210/70 695/1367/69 596/1382/90 594/1383/90
f 695/1358/69 577/1363/69 739/1384/90 596/1385/90
f 577/1366/69 778/1211/70 737/1386/90 739/1387/90
f 778/1214/70 694/1207/70 594/1388/90 737/1389/90
f 455/1226/63 770/1379/62 742/1390/91 839/1391/91
f 770/1370/62 700/1375/62 843/1392/91 742/1393/91
f 700/1378/62 701/1227/63 841/1394/91 843/1395/91
f 701/1230/63 455/1223/63 839/1396/91 841/1397/91
f 706/1398/91 847/1399/91 845/1400/91 601/1401/91
f 598/1402/75 600/1403/75 705/1404/75 707/1405/75
f 585/1406/85 846/1407/85 512/1408/85 467/1409/85
f 583/1410/75 469/1411/75 513/1412/75 848/1413/75
f 398/1414/85 468/1415/85 514/1416/85 417/1417/85
f 851/1418/77 849/1419/77 853/1420/77 605/1421/77
f 589/1422/75 850/1423/75 852/1424/75 587/1425/75
f 710/1426/86 854/1427/86 418/1428/86 471/1429/86
f 602/1430/92 604/1431/92 516/1432/92 399/1433/92
f 470/1434/86 472/1435/86 517/1436/86 515/1437/86
f 716/1438/78 855/1439/78 857/1440/78 859/1441/78
f 780/1442/75 856/1443/75 715/1444/75 714/1445/75
f 782/1446/86 401/1447/86 518/1448/86 858/1449/86
f 712/1450/75 473/1451/75 519/1452/75 860/1453/75
f 400/1454/86 419/1455/86 520/1456/86 402/1457/86
f 861/1458/79 720/1459/79 608/1460/79 606/1461/79
f 717/1462/92 784/1463/92 862/1464/92 719/1465/92
f 788/1466/88 609/1467/88 420/1468/88 404/1469/88
f 786/1470/92 607/1471/92 522/1472/92 475/1473/92
f 403/1474/87 521/1475/87 523/1476/87 474/1477/87
f 615/1478/79 610/1479/79 612/1480/79 863/1481/79
f 722/1482/75 864/1483/75 614/1484/75 616/1485/75
f 792/1486/87 613/1487/87 421/1488/87 477/1489/87
f 790/1490/75 478/1491/75 525/1492/75 611/1493/75
f 476/1494/87 405/1495/87 526/1496/87 524/1497/87
f 619/1498/81 745/1499/81 865/1500/81 867/1501/81
f 794/1502/92 620/1503/92 618/1504/92 746/1505/92
f 798/1506/90 866/1507/90 527/1508/90 480/1509/90
f 796/1510/92 868/1511/92 529/1512/92 482/1513/92
f 479/1514/89 528/1515/89 530/1516/89 481/1517/89
f 624/1518/82 622/1519/82 626/1520/82 631/1521/82
f 726/1522/75 623/1523/75 625/1524/75 724/1525/75
f 728/1526/89 627/1527/89 531/1528/89 484/1529/89
f 628/1530/92 630/1531/92 533/1532/92 406/1533/92
f 483/1534/89 485/1535/89 534/1536/89 532/1537/89
f 634/1538/83 632/1539/83 639/1540/83 869/1541/83
f 732/1542/92 730/1543/92 635/1544/92 633/1545/92
f 636/1546/91 487/1547/91 535/1548/91 638/1549/91
f 800/1550/75 489/1551/75 537/1552/75 870/1553/75
f 486/1554/91 536/1555/91 538/1556/91 488/1557/91
f 873/1558/84 871/1559/84 875/1560/84 877/1561/84
f 804/1562/75 872/1563/75 874/1564/75 802/1565/75
f 808/1566/77 876/1567/77 422/1568/77 490/1569/77
f 806/1570/92 878/1571/92 423/1572/92 492/1573/92
f 407/1574/77 491/1575/77 424/1576/77 539/1577/77
f 645/1578/85 642/1579/85 640/1580/85 651/1581/85
f 810/1582/75 643/1583/75 644/1584/75 646/1585/75
f 812/1586/91 641/1587/91 540/1588/91 408/1589/91
f 648/1590/92 650/1591/92 542/1592/92 495/1593/92
f 493/1594/91 494/1595/91 543/1596/91 541/1597/91
f 656/1598/86 879/1599/86 654/1600/86 652/1601/86
f 593/1602/75 880/1603/75 657/1604/75 591/1605/75
f 816/1606/78 655/1607/78 425/1608/78 497/1609/78
f 814/1610/92 653/1611/92 545/1612/92 409/1613/92
f 496/1614/78 410/1615/78 546/1616/78 544/1617/78
f 749/1618/87 747/1619/87 881/1620/87 883/1621/87
f 820/1622/92 818/1623/92 750/1624/92 748/1625/92
f 824/1626/80 412/1627/80 547/1628/80 882/1629/80
f 822/1630/75 499/1631/75 549/1632/75 884/1633/75
f 411/1634/79 498/1635/79 426/1636/79 548/1637/79
f 660/1638/87 887/1639/87 885/1640/87 658/1641/87
f 828/1642/75 659/1643/75 661/1644/75 826/1645/75
f 832/1646/80 886/1647/80 550/1648/80 501/1649/80
f 830/1650/92 888/1651/92 427/1652/92 503/1653/92
f 500/1654/80 502/1655/80 428/1656/80 551/1657/80
f 664/1658/90 666/1659/90 736/1660/90 662/1661/90
f 836/1662/75 663/1663/75 665/1664/75 834/1665/75
f 733/1666/82 505/1667/82 552/1668/82 735/1669/82
f 838/1670/92 667/1671/92 429/1672/92 413/1673/92
f 504/1674/82 553/1675/82 554/1676/82 506/1677/82
f 751/1678/90 889/1679/90 891/1680/90 753/1681/90
f 597/1682/75 890/1683/75 752/1684/75 595/1685/75
f 740/1686/82 892/1687/82 555/1688/82 508/1689/82
f 738/1690/92 754/1691/92 556/1692/92 414/1693/92
f 507/1694/82 509/1695/82 431/1696/82 430/1697/82
f 893/1698/91 744/1699/91 757/1700/91 755/1701/91
f 741/1702/92 840/1703/92 894/1704/92 743/1705/92
f 844/1706/85 415/1707/85 432/1708/85 758/1709/85
f 842/1710/92 756/1711/92 433/1712/92 511/1713/92
f 510/1714/85 557/1715/85 558/1716/85 416/1717/85
f 391/1718/75 389/1719/75 390/1720/75
f 390/1721/75 466/1722/75 465/1723/75
f 465/1724/75 464/1725/75 463/1726/75
f 463/1727/75 397/1728/75 462/1205/75
f 462/1729/75 461/1730/75 460/1731/75
f 460/1732/75 396/1733/75 395/1734/75
f 395/1735/75 394/1736/75 393/1737/75
f 393/1203/75 392/1738/75 391/1739/75
f 391/1718/75 390/1740/75 465/1723/75
f 465/1724/75 463/1741/75 391/1739/75
f 463/1727/75 462/1742/75 391/1739/75
f 462/1729/75 460/1743/75 395/1734/75
f 395/1735/75 393/1744/75 462/1205/75
